<svg width="927" height="926" viewBox="0 0 927 926" fill="none" xmlns="http://www.w3.org/2000/svg">
<path d="M462.484 215.492L475.333 402.19C476.275 415.876 491.567 423.52 503.079 416.06L669.67 308.114L522.234 432.333C511.151 441.67 515.083 459.608 529.055 463.453L720.84 516.232L521.619 486.274C507.62 484.169 496.782 498.301 502.446 511.275L577.464 683.131L477.877 518.862C470.87 507.304 454.099 507.304 447.092 518.862L347.505 683.131L422.523 511.275C428.186 498.301 417.348 484.169 403.35 486.274L204.128 516.232L395.913 463.453C409.886 459.608 413.818 441.67 402.735 432.333L255.299 308.114L421.89 416.06C433.402 423.52 448.694 415.876 449.635 402.19L462.484 215.492Z" fill="black"/>
<path d="M473.753 384.758L456.325 386.337L473.753 384.758ZM473.437 381.271L490.866 379.691L473.437 381.271ZM472.549 353.266L490.043 353.733L472.549 353.266ZM472.643 349.751L455.149 349.284L472.643 349.751ZM472.737 346.236L490.23 346.704L472.737 346.236ZM470.371 318.333L487.538 314.934L470.371 318.333ZM469.001 311.411L451.834 314.809L469.001 311.411ZM467.389 283.455L484.833 284.851L467.389 283.455ZM467.671 279.928L450.227 278.532L467.671 279.928ZM467.953 276.4L485.397 277.796L467.953 276.4ZM466.166 248.457L449.042 252.066L466.166 248.457ZM465.437 244.999L482.561 241.389L465.437 244.999ZM464.708 241.541L447.585 245.15L464.708 241.541ZM462.409 232.011L445.086 234.493L462.409 232.011ZM462.717 234.162L480.04 231.681L462.717 234.162ZM461.575 252.377L478.936 254.572L461.575 252.377ZM461.135 255.855L443.773 253.66L461.135 255.855ZM460.695 259.333L478.057 261.528L460.695 259.333ZM456.704 287.125L439.426 284.346L456.704 287.125ZM456.146 290.595L473.424 293.373L456.146 290.595ZM455.588 294.064L438.31 291.286V291.286L455.588 294.064ZM452.255 321.901L469.701 323.277L452.255 321.901ZM451.98 325.391L434.534 324.015L451.98 325.391ZM451.705 328.88L434.259 327.505L451.705 328.88ZM451.428 356.927L468.898 355.906L451.428 356.927ZM451.84 363.972L469.31 362.951L451.84 363.972ZM450.587 392.165L433.274 389.616L450.587 392.165ZM450.068 395.69L467.382 398.239L450.068 395.69ZM449.549 399.216L432.236 396.667L449.549 399.216ZM434.212 412.974L434.667 395.48L434.212 412.974ZM430.896 412.888L430.442 430.382L430.896 412.888ZM427.581 412.802L428.036 395.308L427.581 412.802ZM403.555 403.325L414.876 389.98L403.555 403.325ZM398.172 398.758L386.851 412.103L398.172 398.758ZM374.967 383.081L383.115 367.594L374.967 383.081ZM371.856 381.445L363.709 396.932L371.856 381.445ZM339.297 360.895L329.004 375.048L339.297 360.895ZM315.249 346.516L307.643 362.276L315.249 346.516ZM312.072 344.982L319.679 329.222L312.072 344.982ZM308.895 343.449L301.289 359.209L308.895 343.449ZM283.046 325.415L294.793 312.444L283.046 325.415ZM280.418 323.035L268.671 336.006L280.418 323.035ZM270.287 316.262L287.62 313.851L270.287 316.262ZM270.382 316.949L287.716 314.538L270.382 316.949ZM270.478 317.635L253.145 320.047L270.478 317.635ZM282.093 328.779L292.57 314.762L282.093 328.779ZM284.901 330.878L274.424 344.895L284.901 330.878ZM287.709 332.977L298.186 318.96L287.709 332.977ZM314.141 355.925L302.039 368.566L314.141 355.925ZM334.004 375.806L321.353 387.898L334.004 375.806ZM336.437 378.351L349.087 366.26L336.437 378.351ZM338.869 380.896L326.218 392.988L338.869 380.896ZM359.836 399.467L349.366 413.489L359.836 399.467ZM365.455 403.662L375.925 389.64L365.455 403.662ZM388.544 419.908L398.211 405.32L388.544 419.908ZM391.507 421.871L381.839 436.459L391.507 421.871ZM394.47 423.835L404.137 409.248L394.47 423.835ZM401.94 446.766L385.135 441.882L401.94 446.766ZM401.064 449.781L417.868 454.665L401.064 449.781ZM384.264 466.127L378.895 449.472L384.264 466.127ZM377.618 468.27L372.248 451.615L377.618 468.27ZM350.709 475.849L346.596 458.839L350.709 475.849ZM343.902 477.495L348.016 494.505L343.902 477.495ZM316.965 485.139L311.532 468.504L316.965 485.139ZM310.304 487.315L315.737 503.95L310.304 487.315ZM283.136 494.124L280.078 476.893L283.136 494.124ZM276.214 495.353L273.156 478.122L276.214 495.353ZM248.964 501.859L254.024 518.612L248.964 501.859ZM245.612 502.872L240.553 486.119L245.612 502.872ZM242.261 503.884L247.321 520.636L242.261 503.884ZM222.592 511.281L214.341 495.848L222.592 511.281ZM221.026 512.118L212.775 496.685L221.026 512.118ZM219.461 512.955L227.712 528.388L219.461 512.955ZM227.064 514.368L229.483 531.7L227.064 514.368ZM233.997 513.4L231.578 496.068L233.997 513.4ZM261.486 507.906L265.909 524.837L261.486 507.906ZM264.891 507.016L260.468 490.084L264.891 507.016ZM268.297 506.126L272.72 523.058V523.058L268.297 506.126ZM295.794 500.69L298.141 518.032L295.794 500.69ZM302.732 499.751L300.385 482.409L302.732 499.751ZM330.511 496.192L328.41 478.818L330.511 496.192ZM337.464 495.351L339.565 512.724L337.464 495.351ZM365.12 490.969L361.747 473.797L365.12 490.969ZM368.557 490.294L365.185 473.122L368.557 490.294ZM371.995 489.619L375.367 506.791L371.995 489.619ZM399.719 488.337L401.486 470.926L399.719 488.337ZM403.212 488.691L401.444 506.102L403.212 488.691ZM406.705 489.046L408.472 471.635L406.705 489.046ZM418.59 503.709L435.877 506.433L418.59 503.709ZM417.547 510.332L400.26 507.608L417.547 510.332ZM411.382 537.072L428.133 542.135L411.382 537.072ZM410.362 540.446L393.61 535.383L410.362 540.446ZM409.342 543.82L392.591 538.757V538.757L409.342 543.82ZM397.563 569.229L412.26 578.729L397.563 569.229ZM395.638 572.208L380.941 562.708L395.638 572.208ZM393.713 575.186L408.41 584.686L393.713 575.186ZM382.269 600.742L399.145 605.373L382.269 600.742ZM381.333 604.153L398.209 608.783L381.333 604.153ZM380.397 607.563L363.521 602.933L380.397 607.563ZM370.595 633.836L354.817 626.267L370.595 633.836ZM367.566 640.151L383.344 647.72L367.566 640.151ZM355.846 664.144L371.51 671.948L355.846 664.144ZM355.904 669.997L341.998 659.373L355.904 669.997ZM358.041 667.2L371.947 677.825L358.041 667.2ZM360.179 664.403L346.273 653.778L360.179 664.403ZM374.522 640.355L358.567 633.165L374.522 640.355ZM377.42 633.926L393.374 641.115L377.42 633.926ZM390.474 609.096L375.511 600.021L390.474 609.096ZM392.289 606.104L407.252 615.178L392.289 606.104ZM394.104 603.111L409.067 612.186L394.104 603.111ZM409.84 579.907L423.809 590.448L409.84 579.907ZM411.959 577.099L397.99 566.558L411.959 577.099ZM414.078 574.291L428.048 584.831L414.078 574.291ZM429.41 550.842L414.149 542.277L429.41 550.842ZM431.123 547.788L446.385 556.352L431.123 547.788ZM432.837 544.734L417.576 536.169L432.837 544.734ZM449.139 524.95L438.198 511.292L449.139 524.95ZM451.501 523.058L440.56 509.4L451.501 523.058ZM453.863 521.166L464.804 534.823L453.863 521.166ZM473.601 521.2L483.999 507.124L473.601 521.2ZM476.174 523.101L465.776 537.177L476.174 523.101ZM478.747 525.002L489.145 510.926L478.747 525.002ZM494.725 545.529L510.743 538.482L494.725 545.529ZM497.568 551.991L481.549 559.038L497.568 551.991ZM511.213 576.463L525.621 566.531L511.213 576.463ZM515.192 582.236L500.784 592.168L515.192 582.236ZM530.867 605.477L516.26 615.114L530.867 605.477ZM534.725 611.324L549.332 601.687L534.725 611.324ZM550.171 634.703L564.766 625.048L550.171 634.703ZM554.036 640.546L568.632 630.89L554.036 640.546ZM568.329 664.275L552.961 672.648L568.329 664.275ZM569.969 667.286L585.337 658.914L569.969 667.286ZM571.61 670.297L556.242 678.67L571.61 670.297ZM573.264 669.208L589.657 663.083L573.264 669.208ZM572.037 665.925L555.644 672.05L572.037 665.925ZM570.811 662.641L554.418 668.766L570.811 662.641ZM559.151 637.179L543.803 645.586L559.151 637.179ZM557.463 634.097L572.811 625.69L557.463 634.097ZM555.775 631.015L540.426 639.422L555.775 631.015ZM544.127 605.548L560.526 599.439L544.127 605.548ZM542.903 602.264L526.504 608.373L542.903 602.264ZM541.679 598.979L558.078 592.869L541.679 598.979ZM530.732 573.206L514.949 580.767L530.732 573.206ZM529.219 570.048L545.002 562.487L529.219 570.048ZM527.706 566.889L543.489 559.329L527.706 566.889ZM515.436 541.694L531.119 533.93L515.436 541.694ZM512.327 535.413L496.643 543.177L512.327 535.413ZM506.598 509.933L489.111 509.27L506.598 509.933ZM506.843 503.473L524.33 504.136L506.843 503.473ZM520.628 490.958L521.159 473.466L520.628 490.958ZM523.952 491.058L523.42 508.55L523.952 491.058ZM527.276 491.159L527.807 473.668L527.276 491.159ZM554.752 491.405L554.947 508.904L554.752 491.405ZM558.297 491.366L558.102 473.867L558.297 491.366ZM561.843 491.326L562.038 508.825L561.843 491.326ZM589.492 495.753L583.852 512.32L589.492 495.753ZM592.859 496.9L598.498 480.333L592.859 496.9ZM596.226 498.046L590.586 514.612L596.226 498.046ZM623.855 502.602L623.89 520.102L623.855 502.602ZM627.396 502.595L627.361 485.095L627.396 502.595ZM630.936 502.588L630.971 520.088L630.936 502.588ZM658.958 504.536L661.428 487.211L658.958 504.536ZM662.423 505.03L659.953 522.355L662.423 505.03ZM665.888 505.524L668.358 488.199L665.888 505.524ZM693.634 509.308L691.374 526.662L693.634 509.308ZM697.105 509.761L699.365 492.407L697.105 509.761ZM700.577 510.213L698.316 527.566L700.577 510.213ZM706.145 510.886L703.779 528.225L706.145 510.886ZM701.987 510.319L704.353 492.979L701.987 510.319ZM680.399 504.642L686.066 488.085L680.399 504.642ZM677.082 503.507L682.748 486.95L677.082 503.507ZM673.764 502.372L668.098 518.929L673.764 502.372ZM646.993 494.124L651.625 477.248L646.993 494.124ZM640.243 492.271L635.61 509.147L640.243 492.271ZM613.387 484.33L608.097 501.012L613.387 484.33ZM610.048 483.272L615.338 466.59L610.048 483.272ZM606.709 482.213L601.42 498.894L606.709 482.213ZM579.556 475.355L576.288 492.547L579.556 475.355ZM576.106 474.699L572.838 491.891L576.106 474.699ZM572.656 474.043L569.388 491.236L572.656 474.043ZM545.07 468.227L549.019 451.178L545.07 468.227ZM541.623 467.428L537.674 484.477L541.623 467.428ZM538.177 466.63L534.227 483.678L538.177 466.63ZM523.078 450.457L540.489 448.698L523.078 450.457ZM522.422 443.967L505.011 445.726L522.422 443.967ZM532.571 422.862L542.694 437.137L532.571 422.862ZM538.301 418.799L528.179 404.523L538.301 418.799ZM560.843 402.097L550.133 388.257L560.843 402.097ZM588.03 380.046L576.547 366.841L588.03 380.046ZM590.672 377.749L579.188 364.544L590.672 377.749ZM593.313 375.452L581.829 362.247L593.313 375.452ZM614.842 357.548L603.951 343.849L614.842 357.548ZM617.583 355.369L628.473 369.067L617.583 355.369ZM620.323 353.19L609.433 339.491L620.323 353.19ZM640.726 333.95L627.699 322.265L640.726 333.95ZM643.086 331.319L656.114 343.004L643.086 331.319ZM645.446 328.688L632.419 317.003L645.446 328.688ZM654.6 317.241L637.887 322.432L654.6 317.241ZM654.528 317.01L671.24 311.819L654.528 317.01ZM654.456 316.779L637.744 321.971L654.456 316.779ZM642.605 323.755L632.735 309.304L642.605 323.755ZM639.714 325.729L649.585 340.18L639.714 325.729ZM636.823 327.704L626.953 313.253L636.823 327.704ZM614.361 344.529L603.272 330.99L614.361 344.529ZM611.636 346.76L622.725 360.299L611.636 346.76ZM608.912 348.992L597.823 335.453L608.912 348.992ZM586.027 365.164L595.08 380.14L586.027 365.164ZM583.03 366.976L573.976 352L583.03 366.976ZM580.033 368.787L589.087 383.763L580.033 368.787ZM556.194 383.487L565.51 398.302L556.194 383.487ZM553.231 385.351L543.915 370.536L553.231 385.351ZM550.268 387.214L559.584 402.028L550.268 387.214ZM525.894 401.089L517.909 385.517L525.894 401.089ZM522.764 402.694L530.749 418.266L522.764 402.694ZM519.633 404.299L511.648 388.727L519.633 404.299ZM493.319 410.071L492.496 427.551L493.319 410.071ZM474.069 388.244L491.498 386.664L474.069 388.244ZM473.753 384.758L491.182 383.178L490.866 379.691L473.437 381.271L456.009 382.851L456.325 386.337L473.753 384.758ZM473.437 381.271L490.866 379.691C490.085 371.077 489.81 362.426 490.043 353.733L472.549 353.266L455.055 352.799C454.787 362.851 455.104 372.87 456.009 382.851L473.437 381.271ZM472.549 353.266L490.043 353.733L490.137 350.218L472.643 349.751L455.149 349.284L455.055 352.799L472.549 353.266ZM472.643 349.751L490.137 350.218L490.23 346.704L472.737 346.236L455.243 345.769L455.149 349.284L472.643 349.751ZM472.737 346.236L490.23 346.704C490.516 336.03 489.616 325.432 487.538 314.934L470.371 318.333L453.204 321.732C454.781 329.693 455.459 337.698 455.243 345.769L472.737 346.236ZM470.371 318.333L487.538 314.934L486.853 311.473L469.686 314.872L452.519 318.271L453.204 321.732L470.371 318.333ZM469.686 314.872L486.853 311.473L486.168 308.012L469.001 311.411L451.834 314.809L452.519 318.271L469.686 314.872ZM469.001 311.411L486.168 308.012C484.654 300.365 484.208 292.66 484.833 284.851L467.389 283.455L449.944 282.06C449.064 293.065 449.693 303.997 451.834 314.809L469.001 311.411ZM467.389 283.455L484.833 284.851L485.115 281.323L467.671 279.928L450.227 278.532L449.944 282.06L467.389 283.455ZM467.671 279.928L485.115 281.323L485.397 277.796L467.953 276.4L450.509 275.005L450.227 278.532L467.671 279.928ZM467.953 276.4L485.397 277.796C486.284 266.716 485.581 255.715 483.29 244.847L466.166 248.457L449.042 252.066C450.639 259.641 451.128 267.27 450.509 275.005L467.953 276.4ZM466.166 248.457L483.29 244.847L482.561 241.389L465.437 244.999L448.314 248.608L449.042 252.066L466.166 248.457ZM465.437 244.999L482.561 241.389L481.832 237.931L464.708 241.541L447.585 245.15L448.314 248.608L465.437 244.999ZM464.708 241.541L481.832 237.931C480.867 233.354 480.139 230.011 479.687 228.137C479.576 227.675 479.434 227.106 479.28 226.561C479.213 226.325 479.064 225.809 478.849 225.206C478.751 224.932 478.522 224.305 478.163 223.547C477.985 223.17 477.656 222.505 477.166 221.722C476.802 221.14 475.712 219.44 473.781 217.767C472.181 216.381 466.373 211.958 458.11 214.003C450.277 215.941 447.162 222.066 446.443 223.611C445.459 225.724 445.14 227.536 445.033 228.191C444.893 229.047 444.845 229.745 444.824 230.146C444.757 231.477 444.862 232.573 444.874 232.716C444.934 233.409 445.027 234.085 445.086 234.493L462.409 232.011L479.732 229.529C479.688 229.219 479.715 229.367 479.746 229.721C479.756 229.836 479.773 230.056 479.786 230.342C479.796 230.567 479.818 231.158 479.779 231.924C479.76 232.306 479.713 232.988 479.575 233.831C479.471 234.473 479.154 236.275 478.173 238.382C477.457 239.92 474.346 246.04 466.518 247.978C458.259 250.022 452.456 245.601 450.862 244.219C448.936 242.55 447.853 240.858 447.495 240.287C447.012 239.515 446.69 238.863 446.52 238.503C446.177 237.778 445.966 237.197 445.888 236.98C445.714 236.491 445.615 236.135 445.607 236.107C445.57 235.979 445.584 236.015 445.664 236.347C445.978 237.65 446.605 240.505 447.585 245.15L464.708 241.541ZM462.409 232.011L445.086 234.493L445.24 235.568L462.563 233.087L479.886 230.605L479.732 229.529L462.409 232.011ZM462.563 233.087L445.24 235.568L445.394 236.644L462.717 234.162L480.04 231.681L479.886 230.605L462.563 233.087ZM462.717 234.162L445.394 236.644C445.33 236.198 445.452 236.926 445.274 239.772C445.115 242.301 444.775 245.739 444.213 250.182L461.575 252.377L478.936 254.572C479.547 249.74 479.983 245.505 480.205 241.963C480.408 238.737 480.515 234.996 480.04 231.681L462.717 234.162ZM461.575 252.377L444.213 250.182L443.773 253.66L461.135 255.855L478.497 258.05L478.936 254.572L461.575 252.377ZM461.135 255.855L443.773 253.66L443.333 257.138L460.695 259.333L478.057 261.528L478.497 258.05L461.135 255.855ZM460.695 259.333L443.333 257.138C442.186 266.217 440.883 275.287 439.426 284.346L456.704 287.125L473.982 289.904C475.501 280.457 476.86 270.998 478.057 261.528L460.695 259.333ZM456.704 287.125L439.426 284.346L438.868 287.816L456.146 290.595L473.424 293.373L473.982 289.904L456.704 287.125ZM456.146 290.595L438.868 287.816L438.31 291.286L455.588 294.064L472.866 296.843L473.424 293.373L456.146 290.595ZM455.588 294.064L438.31 291.286C436.747 301.002 435.58 310.749 434.809 320.526L452.255 321.901L469.701 323.277C470.398 314.444 471.452 305.633 472.866 296.843L455.588 294.064ZM452.255 321.901L434.809 320.526L434.534 324.015L451.98 325.391L469.426 326.766L469.701 323.277L452.255 321.901ZM451.98 325.391L434.534 324.015L434.259 327.505L451.705 328.88L469.151 330.256L469.426 326.766L451.98 325.391ZM451.705 328.88L434.259 327.505C433.462 337.613 433.363 347.763 433.958 357.948L451.428 356.927L468.898 355.906C468.396 347.305 468.481 338.757 469.151 330.256L451.705 328.88ZM451.428 356.927L433.958 357.948L434.164 361.471L451.634 360.45L469.104 359.428L468.898 355.906L451.428 356.927ZM451.634 360.45L434.164 361.471L434.37 364.993L451.84 363.972L469.31 362.951L469.104 359.428L451.634 360.45ZM451.84 363.972L434.37 364.993C434.848 373.182 434.486 381.384 433.274 389.616L450.587 392.165L467.901 394.713C469.457 384.142 469.93 373.548 469.31 362.951L451.84 363.972ZM450.587 392.165L433.274 389.616L432.755 393.142L450.068 395.69L467.382 398.239L467.901 394.713L450.587 392.165ZM450.068 395.69L432.755 393.142L432.236 396.667L449.549 399.216L466.863 401.765L467.382 398.239L450.068 395.69ZM449.549 399.216L432.236 396.667C432.081 397.72 431.9 398.081 431.941 397.993C432.004 397.856 432.301 397.299 432.992 396.68C433.7 396.045 434.434 395.693 434.928 395.539C435.357 395.405 435.347 395.498 434.667 395.48L434.212 412.974L433.757 430.468C441.313 430.665 449.603 428.797 456.362 422.734C462.946 416.828 465.802 408.969 466.863 401.765L449.549 399.216ZM434.212 412.974L434.667 395.48L431.351 395.394L430.896 412.888L430.442 430.382L433.757 430.468L434.212 412.974ZM430.896 412.888L431.351 395.394L428.036 395.308L427.581 412.802L427.126 430.296L430.442 430.382L430.896 412.888ZM427.581 412.802L428.036 395.308C423.451 395.188 419.219 393.664 414.876 389.98L403.555 403.325L392.234 416.669C402.243 425.161 414.029 429.955 427.126 430.296L427.581 412.802ZM403.555 403.325L414.876 389.98L412.185 387.697L400.864 401.042L389.542 414.386L392.234 416.669L403.555 403.325ZM400.864 401.042L412.185 387.697L409.494 385.414L398.172 398.758L386.851 412.103L389.542 414.386L400.864 401.042ZM398.172 398.758L409.494 385.414C401.345 378.501 392.546 372.556 383.115 367.594L374.967 383.081L366.819 398.568C373.975 402.333 380.647 406.84 386.851 412.103L398.172 398.758ZM374.967 383.081L383.115 367.594L380.004 365.957L371.856 381.445L363.709 396.932L366.819 398.568L374.967 383.081ZM371.856 381.445L380.004 365.957L376.894 364.321L368.746 379.808L360.598 395.296L363.709 396.932L371.856 381.445ZM368.746 379.808L376.894 364.321C369.344 360.349 362.134 355.864 355.258 350.864L344.966 365.017L334.674 379.171C342.917 385.165 351.56 390.541 360.598 395.296L368.746 379.808ZM344.966 365.017L355.258 350.864L352.424 348.803L342.131 362.956L331.839 377.109L334.674 379.171L344.966 365.017ZM342.131 362.956L352.424 348.803L349.589 346.741L339.297 360.895L329.004 375.048L331.839 377.109L342.131 362.956ZM339.297 360.895L349.589 346.741C341.178 340.625 332.263 335.295 322.856 330.755L315.249 346.516L307.643 362.276C315.18 365.913 322.296 370.17 329.004 375.048L339.297 360.895ZM315.249 346.516L322.856 330.755L319.679 329.222L312.072 344.982L304.466 360.743L307.643 362.276L315.249 346.516ZM312.072 344.982L319.679 329.222L316.502 327.688L308.895 343.449L301.289 359.209L304.466 360.743L312.072 344.982ZM308.895 343.449L316.502 327.688C309.544 324.331 303.197 320.054 297.421 314.824L285.674 327.795L273.927 340.767C282.169 348.231 291.303 354.39 301.289 359.209L308.895 343.449ZM285.674 327.795L297.421 314.824L294.793 312.444L283.046 325.415L271.299 338.386L273.927 340.767L285.674 327.795ZM283.046 325.415L294.793 312.444L292.165 310.063L280.418 323.035L268.671 336.006L271.299 338.386L283.046 325.415ZM280.418 323.035L292.165 310.063C288.635 306.867 285.211 303.942 282.355 302.033C281.579 301.515 280.552 300.871 279.363 300.276C278.425 299.807 276.155 298.726 273.143 298.315C270.233 297.918 262.408 297.757 256.743 304.776C251.971 310.689 252.736 317.111 252.954 318.673L270.287 316.262L287.62 313.851C287.774 314.955 288.589 321.046 283.98 326.757C278.479 333.574 270.931 333.338 268.411 332.994C265.789 332.636 264.022 331.737 263.702 331.577C263.13 331.29 262.833 331.083 262.902 331.129C263.424 331.478 265.191 332.855 268.671 336.006L280.418 323.035ZM270.287 316.262L252.954 318.673L253.049 319.36L270.382 316.949L287.716 314.538L287.62 313.851L270.287 316.262ZM270.382 316.949L253.049 319.36L253.145 320.047L270.478 317.635L287.811 315.224L287.716 314.538L270.382 316.949ZM270.478 317.635L253.145 320.047C253.832 324.983 256.316 328.477 257.307 329.808C258.628 331.583 260.126 333.146 261.457 334.423C264.153 337.009 267.651 339.833 271.616 342.796L282.093 328.779L292.57 314.762C289.046 312.128 286.864 310.295 285.688 309.167C285.084 308.587 285.098 308.528 285.388 308.916C285.544 309.126 285.941 309.681 286.374 310.542C286.779 311.345 287.497 312.968 287.811 315.224L270.478 317.635ZM282.093 328.779L271.616 342.796L274.424 344.895L284.901 330.878L295.378 316.861L292.57 314.762L282.093 328.779ZM284.901 330.878L274.424 344.895L277.232 346.994L287.709 332.977L298.186 318.96L295.378 316.861L284.901 330.878ZM287.709 332.977L277.232 346.994C284.151 352.166 290.73 357.739 296.973 363.715L309.075 351.074L321.177 338.434C313.909 331.475 306.244 324.983 298.186 318.96L287.709 332.977ZM309.075 351.074L296.973 363.715L299.506 366.14L311.608 353.5L323.71 340.859L321.177 338.434L309.075 351.074ZM311.608 353.5L299.506 366.14L302.039 368.566L314.141 355.925L326.244 343.284L323.71 340.859L311.608 353.5ZM314.141 355.925L302.039 368.566C308.607 374.854 315.045 381.298 321.353 387.898L334.004 375.806L346.655 363.715C339.99 356.742 333.186 349.932 326.244 343.284L314.141 355.925ZM334.004 375.806L321.353 387.898L323.786 390.443L336.437 378.351L349.087 366.26L346.655 363.715L334.004 375.806ZM336.437 378.351L323.786 390.443L326.218 392.988L338.869 380.896L351.52 368.805L349.087 366.26L336.437 378.351ZM338.869 380.896L326.218 392.988C333.374 400.474 341.092 407.311 349.366 413.489L359.836 399.467L370.306 385.444C363.597 380.435 357.337 374.891 351.52 368.805L338.869 380.896ZM359.836 399.467L349.366 413.489L352.175 415.587L362.645 401.564L373.116 387.542L370.306 385.444L359.836 399.467ZM362.645 401.564L352.175 415.587L354.984 417.684L365.455 403.662L375.925 389.64L373.116 387.542L362.645 401.564ZM365.455 403.662L354.984 417.684C362.742 423.477 370.706 429.08 378.876 434.495L388.544 419.908L398.211 405.32C390.579 400.262 383.15 395.035 375.925 389.64L365.455 403.662ZM388.544 419.908L378.876 434.495L381.839 436.459L391.507 421.871L401.174 407.284L398.211 405.32L388.544 419.908ZM391.507 421.871L381.839 436.459L384.802 438.422L394.47 423.835L404.137 409.248L401.174 407.284L391.507 421.871ZM394.47 423.835L384.802 438.422C385.768 439.063 386.242 439.525 386.426 439.73C386.591 439.914 386.484 439.844 386.343 439.506C386.276 439.346 386.218 439.165 386.177 438.974C386.136 438.785 386.121 438.626 386.117 438.514C386.11 438.282 386.156 438.372 386.012 438.866L402.816 443.751L419.621 448.635C421.716 441.428 421.806 433.575 418.622 425.977C415.531 418.6 410.072 413.181 404.137 409.248L394.47 423.835ZM402.816 443.751L386.012 438.866L385.135 441.882L401.94 446.766L418.745 451.65L419.621 448.635L402.816 443.751ZM401.94 446.766L385.135 441.882L384.259 444.897L401.064 449.781L417.868 454.665L418.745 451.65L401.94 446.766ZM401.064 449.781L384.259 444.897C383.746 446.663 382.955 448.163 378.895 449.472L384.264 466.127L389.634 482.783C403.299 478.378 413.708 468.98 417.868 454.665L401.064 449.781ZM384.264 466.127L378.895 449.472L375.571 450.543L380.941 467.199L386.311 483.855L389.634 482.783L384.264 466.127ZM380.941 467.199L375.571 450.543L372.248 451.615L377.618 468.27L382.987 484.926L386.311 483.855L380.941 467.199ZM377.618 468.27L372.248 451.615C363.8 454.338 355.25 456.746 346.596 458.839L350.709 475.849L354.823 492.859C364.321 490.561 373.71 487.917 382.987 484.926L377.618 468.27ZM350.709 475.849L346.596 458.839L343.192 459.663L347.306 476.672L351.42 493.682L354.823 492.859L350.709 475.849ZM347.306 476.672L343.192 459.663L339.788 460.486L343.902 477.495L348.016 494.505L351.42 493.682L347.306 476.672ZM343.902 477.495L339.788 460.486C330.267 462.789 320.848 465.461 311.532 468.504L316.965 485.139L322.398 501.775C330.846 499.016 339.385 496.593 348.016 494.505L343.902 477.495ZM316.965 485.139L311.532 468.504L308.201 469.592L313.634 486.227L319.067 502.862L322.398 501.775L316.965 485.139ZM313.634 486.227L308.201 469.592L304.87 470.68L310.304 487.315L315.737 503.95L319.067 502.862L313.634 486.227ZM310.304 487.315L304.87 470.68C296.768 473.326 288.505 475.397 280.078 476.893L283.136 494.124L286.195 511.355C296.226 509.574 306.076 507.106 315.737 503.95L310.304 487.315ZM283.136 494.124L280.078 476.893L276.617 477.508L279.675 494.738L282.734 511.969L286.195 511.355L283.136 494.124ZM279.675 494.738L276.617 477.508L273.156 478.122L276.214 495.353L279.273 512.583L282.734 511.969L279.675 494.738ZM276.214 495.353L273.156 478.122C263.253 479.88 253.501 482.208 243.904 485.107L248.964 501.859L254.024 518.612C262.301 516.112 270.717 514.102 279.273 512.583L276.214 495.353ZM248.964 501.859L243.904 485.107L240.553 486.119L245.612 502.872L250.672 519.624L254.024 518.612L248.964 501.859ZM245.612 502.872L240.553 486.119L237.201 487.131L242.261 503.884L247.321 520.636L250.672 519.624L245.612 502.872ZM242.261 503.884L237.201 487.131C228.006 489.909 220.094 492.772 214.341 495.848L222.592 511.281L230.843 526.714C233.44 525.326 238.641 523.258 247.321 520.636L242.261 503.884ZM222.592 511.281L214.341 495.848L212.775 496.685L221.026 512.118L229.277 527.551L230.843 526.714L222.592 511.281ZM221.026 512.118L212.775 496.685L211.21 497.522L219.461 512.955L227.712 528.388L229.277 527.551L221.026 512.118ZM219.461 512.955L211.21 497.522C210.331 497.992 209.181 498.649 208.008 499.49C207.247 500.036 204.632 501.916 202.627 505.219C201.516 507.05 199.942 510.384 200.014 514.816C200.094 519.717 202.149 523.845 204.847 526.713C209.07 531.203 214.248 532.042 215.033 532.188C218.048 532.748 221.055 532.571 222.604 532.463C224.64 532.322 226.973 532.05 229.483 531.7L227.064 514.368L224.645 497.036C222.533 497.331 221.083 497.485 220.174 497.548C218.779 497.645 219.68 497.452 221.427 497.777C221.578 497.805 226.333 498.472 230.341 502.733C232.933 505.488 234.932 509.488 235.01 514.248C235.079 518.539 233.556 521.717 232.547 523.379C230.748 526.344 228.547 527.831 228.41 527.929C227.862 528.322 227.546 528.476 227.712 528.388L219.461 512.955ZM227.064 514.368L229.483 531.7L232.95 531.216L230.531 513.884L228.111 496.552L224.645 497.036L227.064 514.368ZM230.531 513.884L232.95 531.216L236.417 530.732L233.997 513.4L231.578 496.068L228.111 496.552L230.531 513.884ZM233.997 513.4L236.417 530.732C246.34 529.347 256.172 527.381 265.909 524.837L261.486 507.906L257.062 490.974C248.637 493.175 240.143 494.873 231.578 496.068L233.997 513.4ZM261.486 507.906L265.909 524.837L269.315 523.948L264.891 507.016L260.468 490.084L257.062 490.974L261.486 507.906ZM264.891 507.016L269.315 523.948L272.72 523.058L268.297 506.126L263.874 489.195L260.468 490.084L264.891 507.016ZM268.297 506.126L272.72 523.058C281.122 520.863 289.595 519.188 298.141 518.032L295.794 500.69L293.447 483.348C283.494 484.695 273.635 486.645 263.874 489.195L268.297 506.126ZM295.794 500.69L298.141 518.032L301.61 517.562L299.263 500.22L296.916 482.878L293.447 483.348L295.794 500.69ZM299.263 500.22L301.61 517.562L305.079 517.093L302.732 499.751L300.385 482.409L296.916 482.878L299.263 500.22ZM302.732 499.751L305.079 517.093C314.247 515.852 323.425 514.676 332.613 513.565L330.511 496.192L328.41 478.818C319.059 479.949 309.717 481.146 300.385 482.409L302.732 499.751ZM330.511 496.192L332.613 513.565L336.089 513.145L333.988 495.771L331.886 478.398L328.41 478.818L330.511 496.192ZM333.988 495.771L336.089 513.145L339.565 512.724L337.464 495.351L335.362 477.977L331.886 478.398L333.988 495.771ZM337.464 495.351L339.565 512.724C349.261 511.552 358.903 510.024 368.492 508.141L365.12 490.969L361.747 473.797C353.001 475.514 344.206 476.908 335.362 477.977L337.464 495.351ZM365.12 490.969L368.492 508.141L371.929 507.466L368.557 490.294L365.185 473.122L361.747 473.797L365.12 490.969ZM368.557 490.294L371.929 507.466L375.367 506.791L371.995 489.619L368.623 472.447L365.185 473.122L368.557 490.294ZM371.995 489.619L375.367 506.791C382.839 505.323 390.348 504.975 397.951 505.747L399.719 488.337L401.486 470.926C390.46 469.807 379.486 470.313 368.623 472.447L371.995 489.619ZM399.719 488.337L397.951 505.747L401.444 506.102L403.212 488.691L404.979 471.281L401.486 470.926L399.719 488.337ZM403.212 488.691L401.444 506.102L404.937 506.456L406.705 489.046L408.472 471.635L404.979 471.281L403.212 488.691ZM406.705 489.046L404.937 506.456C407.204 506.686 405.188 507.057 403.067 504.44C402.034 503.165 401.584 501.875 401.429 501.049C401.296 500.337 401.424 500.224 401.304 500.986L418.59 503.709L435.877 506.433C437.011 499.235 436.492 490.094 430.257 482.401C424.174 474.897 415.52 472.351 408.472 471.635L406.705 489.046ZM418.59 503.709L401.304 500.986L400.782 504.297L418.069 507.021L435.355 509.744L435.877 506.433L418.59 503.709ZM418.069 507.021L400.782 504.297L400.26 507.608L417.547 510.332L434.834 513.055L435.355 509.744L418.069 507.021ZM417.547 510.332L400.26 507.608C399 515.608 397.129 523.74 394.63 532.009L411.382 537.072L428.133 542.135C431.072 532.41 433.312 522.716 434.834 513.055L417.547 510.332ZM411.382 537.072L394.63 532.009L393.61 535.383L410.362 540.446L427.114 545.509L428.133 542.135L411.382 537.072ZM410.362 540.446L393.61 535.383L392.591 538.757L409.342 543.82L426.094 548.883L427.114 545.509L410.362 540.446ZM409.342 543.82L392.591 538.757C390.349 546.176 387.116 553.154 382.866 559.73L397.563 569.229L412.26 578.729C418.278 569.419 422.898 559.457 426.094 548.883L409.342 543.82ZM397.563 569.229L382.866 559.73L380.941 562.708L395.638 572.208L410.335 581.708L412.26 578.729L397.563 569.229ZM395.638 572.208L380.941 562.708L379.015 565.687L393.713 575.186L408.41 584.686L410.335 581.708L395.638 572.208ZM393.713 575.186L379.015 565.687C372.913 575.127 368.363 585.287 365.392 596.112L382.269 600.742L399.145 605.373C401.166 598.008 404.244 591.131 408.41 584.686L393.713 575.186ZM382.269 600.742L365.392 596.112L364.457 599.522L381.333 604.153L398.209 608.783L399.145 605.373L382.269 600.742ZM381.333 604.153L364.457 599.522L363.521 602.933L380.397 607.563L397.273 612.194L398.209 608.783L381.333 604.153ZM380.397 607.563L363.521 602.933C361.3 611.027 358.398 618.8 354.817 626.267L370.595 633.836L386.374 641.405C390.871 632.03 394.504 622.289 397.273 612.194L380.397 607.563ZM370.595 633.836L354.817 626.267L353.302 629.425L369.081 636.994L384.859 644.562L386.374 641.405L370.595 633.836ZM369.081 636.994L353.302 629.425L351.787 632.583L367.566 640.151L383.344 647.72L384.859 644.562L369.081 636.994ZM367.566 640.151L351.787 632.583C347.782 640.933 343.914 648.851 340.183 656.34L355.846 664.144L371.51 671.948C375.326 664.288 379.271 656.212 383.344 647.72L367.566 640.151ZM355.846 664.144L340.183 656.34L338.768 659.18L354.431 666.984L370.095 674.788L371.51 671.948L355.846 664.144ZM354.431 666.984L338.768 659.18L337.352 662.021L353.016 669.825L368.68 677.629L370.095 674.788L354.431 666.984ZM353.016 669.825L337.352 662.021C336.36 664.014 335.352 666.148 334.652 668.048C334.397 668.74 333.661 670.745 333.382 673.187C333.275 674.126 332.897 677.559 334.379 681.548C335.229 683.832 336.881 686.8 339.975 689.247C343.175 691.778 346.756 692.832 349.864 693.018C355.123 693.332 358.886 691.199 359.779 690.693C361.209 689.881 362.261 689.03 362.813 688.562C363.966 687.583 364.917 686.565 365.525 685.89C366.835 684.434 368.302 682.595 369.81 680.622L355.904 669.997L341.998 659.373C340.657 661.129 339.866 662.08 339.51 662.475C339.286 662.725 339.552 662.397 340.168 661.875C340.452 661.634 341.273 660.952 342.508 660.251C343.207 659.854 346.813 657.773 351.951 658.08C354.999 658.262 358.53 659.298 361.688 661.796C364.74 664.21 366.36 667.13 367.186 669.352C368.622 673.216 368.235 676.466 368.155 677.163C368.021 678.335 367.791 679.182 367.705 679.486C367.599 679.863 367.512 680.099 367.495 680.145C367.465 680.226 367.524 680.061 367.753 679.557C367.968 679.085 368.27 678.45 368.68 677.629L353.016 669.825ZM355.904 669.997L369.81 680.622L371.947 677.825L358.041 667.2L344.136 656.576L341.998 659.373L355.904 669.997ZM358.041 667.2L371.947 677.825L374.084 675.027L360.179 664.403L346.273 653.778L344.136 656.576L358.041 667.2ZM360.179 664.403L374.084 675.027C380.597 666.503 386.065 657.335 390.477 647.545L374.522 640.355L358.567 633.165C355.253 640.52 351.159 647.384 346.273 653.778L360.179 664.403ZM374.522 640.355L390.477 647.545L391.926 644.33L375.971 637.14L360.016 629.95L358.567 633.165L374.522 640.355ZM375.971 637.14L391.926 644.33L393.374 641.115L377.42 633.926L361.465 626.736L360.016 629.95L375.971 637.14ZM377.42 633.926L393.374 641.115C396.948 633.186 400.969 625.539 405.437 618.171L390.474 609.096L375.511 600.021C370.3 608.614 365.618 617.52 361.465 626.736L377.42 633.926ZM390.474 609.096L405.437 618.171L407.252 615.178L392.289 606.104L377.326 597.029L375.511 600.021L390.474 609.096ZM392.289 606.104L407.252 615.178L409.067 612.186L394.104 603.111L379.141 594.036L377.326 597.029L392.289 606.104ZM394.104 603.111L409.067 612.186C413.599 604.713 418.513 597.468 423.809 590.448L409.84 579.907L395.871 569.366C389.866 577.324 384.289 585.548 379.141 594.036L394.104 603.111ZM409.84 579.907L423.809 590.448L425.928 587.64L411.959 577.099L397.99 566.558L395.871 569.366L409.84 579.907ZM411.959 577.099L425.928 587.64L428.048 584.831L414.078 574.291L400.109 563.75L397.99 566.558L411.959 577.099ZM414.078 574.291L428.048 584.831C434.171 576.716 439.713 568.24 444.671 559.406L429.41 550.842L414.149 542.277C409.966 549.731 405.287 556.887 400.109 563.75L414.078 574.291ZM429.41 550.842L444.671 559.406L446.385 556.352L431.123 547.788L415.862 539.223L414.149 542.277L429.41 550.842ZM431.123 547.788L446.385 556.352L448.098 553.298L432.837 544.734L417.576 536.169L415.862 539.223L431.123 547.788ZM432.837 544.734L448.098 553.298C451.74 546.809 455.79 542.045 460.081 538.607L449.139 524.95L438.198 511.292C429.893 517.945 423.075 526.371 417.576 536.169L432.837 544.734ZM449.139 524.95L460.081 538.607L462.443 536.715L451.501 523.058L440.56 509.4L438.198 511.292L449.139 524.95ZM451.501 523.058L462.443 536.715L464.804 534.823L453.863 521.166L442.921 507.508L440.56 509.4L451.501 523.058ZM453.863 521.166L464.804 534.823C465.223 534.488 465.298 534.516 465.01 534.629C464.685 534.756 464.146 534.891 463.49 534.89C462.846 534.889 462.428 534.757 462.321 534.717C462.249 534.69 462.546 534.79 463.203 535.276L473.601 521.2L483.999 507.124C478.457 503.03 471.547 499.904 463.552 499.89C455.433 499.876 448.457 503.073 442.921 507.508L453.863 521.166ZM473.601 521.2L463.203 535.276L465.776 537.177L476.174 523.101L486.572 509.025L483.999 507.124L473.601 521.2ZM476.174 523.101L465.776 537.177L468.349 539.077L478.747 525.002L489.145 510.926L486.572 509.025L476.174 523.101ZM478.747 525.002L468.349 539.077C472.508 542.15 476.014 546.456 478.706 552.576L494.725 545.529L510.743 538.482C505.854 527.369 498.708 517.99 489.145 510.926L478.747 525.002ZM494.725 545.529L478.706 552.576L480.128 555.807L496.146 548.76L512.165 541.713L510.743 538.482L494.725 545.529ZM496.146 548.76L480.128 555.807L481.549 559.038L497.568 551.991L513.586 544.944L512.165 541.713L496.146 548.76ZM497.568 551.991L481.549 559.038C485.781 568.658 490.867 577.782 496.804 586.395L511.213 576.463L525.621 566.531C520.946 559.748 516.935 552.557 513.586 544.944L497.568 551.991ZM511.213 576.463L496.804 586.395L498.794 589.281L513.203 579.349L527.611 569.417L525.621 566.531L511.213 576.463ZM513.203 579.349L498.794 589.281L500.784 592.168L515.192 582.236L529.601 572.304L527.611 569.417L513.203 579.349ZM515.192 582.236L500.784 592.168C506.023 599.768 511.182 607.417 516.26 615.114L530.867 605.477L545.474 595.839C540.265 587.944 534.974 580.099 529.601 572.304L515.192 582.236ZM530.867 605.477L516.26 615.114L518.189 618.038L532.796 608.4L547.403 598.763L545.474 595.839L530.867 605.477ZM532.796 608.4L518.189 618.038L520.118 620.961L534.725 611.324L549.332 601.687L547.403 598.763L532.796 608.4ZM534.725 611.324L520.118 620.961C525.265 628.764 530.418 636.563 535.576 644.359L550.171 634.703L564.766 625.048C559.616 617.264 554.472 609.477 549.332 601.687L534.725 611.324ZM550.171 634.703L535.576 644.359L537.509 647.281L552.104 637.625L566.699 627.969L564.766 625.048L550.171 634.703ZM552.104 637.625L537.509 647.281L539.441 650.202L554.036 640.546L568.632 630.89L566.699 627.969L552.104 637.625ZM554.036 640.546L539.441 650.202C544.325 657.584 548.831 665.066 552.961 672.648L568.329 664.275L583.696 655.903C579.078 647.426 574.055 639.088 568.632 630.89L554.036 640.546ZM568.329 664.275L552.961 672.648L554.602 675.659L569.969 667.286L585.337 658.914L583.696 655.903L568.329 664.275ZM569.969 667.286L554.602 675.659L556.242 678.67L571.61 670.297L586.977 661.925L585.337 658.914L569.969 667.286ZM571.61 670.297L556.242 678.67C557.38 680.758 558.48 682.695 559.451 684.206C559.863 684.848 560.662 686.064 561.707 687.267C562.11 687.73 563.413 689.222 565.452 690.58C566.076 690.996 575.106 697.131 584.928 690.663C589.246 687.82 591.095 683.947 591.851 681.801C592.621 679.615 592.789 677.758 592.839 676.792C592.94 674.849 592.7 673.288 592.6 672.682C592.366 671.255 591.999 669.966 591.771 669.199C591.257 667.475 590.509 665.362 589.657 663.083L573.264 669.208L556.871 675.333C557.655 677.432 558.066 678.648 558.231 679.203C558.343 679.577 558.196 679.164 558.063 678.354C558.014 678.055 557.794 676.736 557.887 674.969C557.932 674.092 558.088 672.306 558.838 670.176C559.574 668.085 561.396 664.252 565.68 661.431C575.434 655.009 584.365 661.124 584.86 661.454C586.77 662.727 587.915 664.066 588.129 664.313C588.797 665.082 589.1 665.602 588.896 665.286C588.636 664.88 588.027 663.852 586.977 661.925L571.61 670.297ZM573.264 669.208L589.657 663.083L588.431 659.8L572.037 665.925L555.644 672.05L556.871 675.333L573.264 669.208ZM572.037 665.925L588.431 659.8L587.204 656.516L570.811 662.641L554.418 668.766L555.644 672.05L572.037 665.925ZM570.811 662.641L587.204 656.516C583.638 646.974 579.402 637.724 574.499 628.772L559.151 637.179L543.803 645.586C547.903 653.072 551.44 660.797 554.418 668.766L570.811 662.641ZM559.151 637.179L574.499 628.772L572.811 625.69L557.463 634.097L542.114 642.504L543.803 645.586L559.151 637.179ZM557.463 634.097L572.811 625.69L571.123 622.608L555.775 631.015L540.426 639.422L542.114 642.504L557.463 634.097ZM555.775 631.015L571.123 622.608C567.025 615.127 563.494 607.406 560.526 599.439L544.127 605.548L527.728 611.658C531.286 621.21 535.52 630.466 540.426 639.422L555.775 631.015ZM544.127 605.548L560.526 599.439L559.302 596.154L542.903 602.264L526.504 608.373L527.728 611.658L544.127 605.548ZM542.903 602.264L559.302 596.154L558.078 592.869L541.679 598.979L525.28 605.089L526.504 608.373L542.903 602.264ZM541.679 598.979L558.078 592.869C554.631 583.618 550.777 574.543 546.515 565.646L530.732 573.206L514.949 580.767C518.757 588.715 522.2 596.822 525.28 605.089L541.679 598.979ZM530.732 573.206L546.515 565.646L545.002 562.487L529.219 570.048L513.436 577.608L514.949 580.767L530.732 573.206ZM529.219 570.048L545.002 562.487L543.489 559.329L527.706 566.889L511.923 574.45L513.436 577.608L529.219 570.048ZM527.706 566.889L543.489 559.329C539.421 550.838 535.298 542.372 531.119 533.93L515.436 541.694L499.752 549.458C503.864 557.765 507.921 566.095 511.923 574.45L527.706 566.889ZM515.436 541.694L531.119 533.93L529.565 530.79L513.881 538.554L498.198 546.317L499.752 549.458L515.436 541.694ZM513.881 538.554L529.565 530.79L528.01 527.65L512.327 535.413L496.643 543.177L498.198 546.317L513.881 538.554ZM512.327 535.413L528.01 527.65C525.047 521.664 523.879 516.051 524.086 510.595L506.598 509.933L489.111 509.27C488.665 521.04 491.315 532.414 496.643 543.177L512.327 535.413ZM506.598 509.933L524.086 510.595L524.208 507.366L506.721 506.703L489.233 506.04L489.111 509.27L506.598 509.933ZM506.721 506.703L524.208 507.366L524.33 504.136L506.843 503.473L489.355 502.81L489.233 506.04L506.721 506.703ZM506.843 503.473L524.33 504.136C524.386 502.664 524.658 504.698 522.297 506.841C520.031 508.899 518.25 508.393 520.097 508.449L520.628 490.958L521.159 473.466C514.143 473.252 505.632 474.698 498.771 480.928C491.815 487.242 489.626 495.669 489.355 502.81L506.843 503.473ZM520.628 490.958L520.097 508.449L523.42 508.55L523.952 491.058L524.483 473.567L521.159 473.466L520.628 490.958ZM523.952 491.058L523.42 508.55L526.744 508.651L527.276 491.159L527.807 473.668L524.483 473.567L523.952 491.058ZM527.276 491.159L526.744 508.651C535.865 508.928 545.267 509.012 554.947 508.904L554.752 491.405L554.557 473.906C545.329 474.009 536.413 473.929 527.807 473.668L527.276 491.159ZM554.752 491.405L554.947 508.904L558.492 508.865L558.297 491.366L558.102 473.867L554.557 473.906L554.752 491.405ZM558.297 491.366L558.492 508.865L562.038 508.825L561.843 491.326L561.648 473.827L558.102 473.867L558.297 491.366ZM561.843 491.326L562.038 508.825C569.502 508.742 576.745 509.9 583.852 512.32L589.492 495.753L595.131 479.187C584.281 475.493 573.092 473.7 561.648 473.827L561.843 491.326ZM589.492 495.753L583.852 512.32L587.219 513.466L592.859 496.9L598.498 480.333L595.131 479.187L589.492 495.753ZM592.859 496.9L587.219 513.466L590.586 514.612L596.226 498.046L601.865 481.479L598.498 480.333L592.859 496.9ZM596.226 498.046L590.586 514.612C601.383 518.288 612.51 520.125 623.89 520.102L623.855 502.602L623.82 485.102C616.318 485.117 609.025 483.917 601.865 481.479L596.226 498.046ZM623.855 502.602L623.89 520.102L627.431 520.095L627.396 502.595L627.361 485.095L623.82 485.102L623.855 502.602ZM627.396 502.595L627.431 520.095L630.971 520.088L630.936 502.588L630.901 485.088L627.361 485.095L627.396 502.595ZM630.936 502.588L630.971 520.088C639.584 520.071 648.087 520.663 656.488 521.861L658.958 504.536L661.428 487.211C651.349 485.774 641.171 485.068 630.901 485.088L630.936 502.588ZM658.958 504.536L656.488 521.861L659.953 522.355L662.423 505.03L664.893 487.705L661.428 487.211L658.958 504.536ZM662.423 505.03L659.953 522.355L663.418 522.849L665.888 505.524L668.358 488.199L664.893 487.705L662.423 505.03ZM665.888 505.524L663.418 522.849C672.728 524.176 682.047 525.447 691.374 526.662L693.634 509.308L695.894 491.955C686.707 490.758 677.529 489.506 668.358 488.199L665.888 505.524ZM693.634 509.308L691.374 526.662L694.845 527.114L697.105 509.761L699.365 492.407L695.894 491.955L693.634 509.308ZM697.105 509.761L694.845 527.114L698.316 527.566L700.577 510.213L702.837 492.859L699.365 492.407L697.105 509.761ZM700.577 510.213L698.316 527.566C702.904 528.164 705.782 528.534 706.81 528.659C706.941 528.674 707.109 528.694 707.27 528.712C707.329 528.719 707.511 528.738 707.73 528.757C707.798 528.763 708.12 528.792 708.527 528.809C708.656 528.814 709.266 528.841 710.043 528.806C710.319 528.794 711.414 528.747 712.783 528.466C713.575 528.284 715.648 527.616 716.9 527.068C719.114 525.786 724.14 520.535 726.068 516.197C726.749 510.683 724.16 502.144 722.079 499.409C720.798 498.165 718.558 496.497 717.686 495.985C716.232 495.186 714.987 494.785 714.736 494.702C713.926 494.435 713.271 494.288 713.152 494.261C712.736 494.166 712.403 494.107 712.337 494.095C712.116 494.055 711.931 494.026 711.873 494.017C711.713 493.992 711.545 493.968 711.415 493.949C710.877 493.871 709.887 493.735 708.512 493.547L706.145 510.886L703.779 528.225C705.176 528.416 706.033 528.535 706.417 528.59C706.518 528.605 706.523 528.606 706.477 528.599C706.476 528.599 706.335 528.577 706.142 528.542C706.091 528.533 705.768 528.476 705.359 528.382C705.244 528.356 704.591 528.21 703.783 527.944C703.533 527.861 702.289 527.46 700.835 526.661C699.964 526.149 697.723 524.481 696.443 523.238C694.361 520.503 691.772 511.964 692.453 506.45C694.381 502.112 699.407 496.861 701.621 495.579C702.873 495.031 704.946 494.364 705.738 494.182C707.106 493.901 708.2 493.854 708.475 493.841C709.251 493.807 709.858 493.834 709.983 493.839C710.383 493.856 710.693 493.883 710.747 493.888C710.937 493.904 711.075 493.92 711.076 493.92C711.12 493.925 711.114 493.924 711.013 493.912C710.185 493.812 707.506 493.467 702.837 492.859L700.577 510.213ZM706.145 510.886L708.512 493.547L706.432 493.263L704.066 510.602L701.7 527.942L703.779 528.225L706.145 510.886ZM704.066 510.602L706.432 493.263L704.353 492.979L701.987 510.319L699.621 527.658L701.7 527.942L704.066 510.602ZM701.987 510.319L704.353 492.979C700.428 492.444 694.451 490.955 686.066 488.085L680.399 504.642L674.733 521.2C684.042 524.385 692.457 526.68 699.621 527.658L701.987 510.319ZM680.399 504.642L686.066 488.085L682.748 486.95L677.082 503.507L671.416 520.064L674.733 521.2L680.399 504.642ZM677.082 503.507L682.748 486.95L679.43 485.814L673.764 502.372L668.098 518.929L671.416 520.064L677.082 503.507ZM673.764 502.372L679.43 485.814C670.243 482.67 660.974 479.815 651.625 477.248L646.993 494.124L642.36 511C651.012 513.375 659.591 516.018 668.098 518.929L673.764 502.372ZM646.993 494.124L651.625 477.248L648.25 476.322L643.618 493.198L638.985 510.073L642.36 511L646.993 494.124ZM643.618 493.198L648.25 476.322L644.875 475.395L640.243 492.271L635.61 509.147L638.985 510.073L643.618 493.198ZM640.243 492.271L644.875 475.395C636.095 472.985 627.362 470.403 618.677 467.649L613.387 484.33L608.097 501.012C617.218 503.904 626.389 506.616 635.61 509.147L640.243 492.271ZM613.387 484.33L618.677 467.649L615.338 466.59L610.048 483.272L604.759 499.953L608.097 501.012L613.387 484.33ZM610.048 483.272L615.338 466.59L611.999 465.531L606.709 482.213L601.42 498.894L604.759 499.953L610.048 483.272ZM606.709 482.213L611.999 465.531C602.431 462.497 592.705 460.041 582.824 458.163L579.556 475.355L576.288 492.547C584.805 494.166 593.181 496.282 601.42 498.894L606.709 482.213ZM579.556 475.355L582.824 458.163L579.374 457.507L576.106 474.699L572.838 491.891L576.288 492.547L579.556 475.355ZM576.106 474.699L579.374 457.507L575.925 456.851L572.656 474.043L569.388 491.236L572.838 491.891L576.106 474.699ZM572.656 474.043L575.925 456.851C566.955 455.146 557.987 453.255 549.019 451.178L545.07 468.227L541.121 485.275C550.537 487.456 559.96 489.443 569.388 491.236L572.656 474.043ZM545.07 468.227L549.019 451.178L545.573 450.38L541.623 467.428L537.674 484.477L541.121 485.275L545.07 468.227ZM541.623 467.428L545.573 450.38L542.126 449.581L538.177 466.63L534.227 483.678L537.674 484.477L541.623 467.428ZM538.177 466.63L542.126 449.581C541.053 449.333 540.477 449.075 540.242 448.95C540.031 448.839 540.112 448.847 540.3 449.047C540.497 449.258 540.609 449.466 540.644 449.55C540.668 449.605 540.557 449.372 540.489 448.698L523.078 450.457L505.666 452.216C506.417 459.644 509.141 466.96 514.716 472.932C520.191 478.796 527.184 482.047 534.227 483.678L538.177 466.63ZM523.078 450.457L540.489 448.698L540.161 445.453L522.75 447.212L505.339 448.971L505.666 452.216L523.078 450.457ZM522.75 447.212L540.161 445.453L539.834 442.208L522.422 443.967L505.011 445.726L505.339 448.971L522.75 447.212ZM522.422 443.967L539.834 442.208C539.682 440.711 539.935 440.076 540.075 439.785C540.247 439.427 540.811 438.472 542.694 437.137L532.571 422.862L522.449 408.586C510.154 417.304 503.446 430.238 505.011 445.726L522.422 443.967ZM532.571 422.862L542.694 437.137L545.559 435.106L535.436 420.83L525.314 406.555L522.449 408.586L532.571 422.862ZM535.436 420.83L545.559 435.106L548.424 433.074L538.301 418.799L528.179 404.523L525.314 406.555L535.436 420.83ZM538.301 418.799L548.424 433.074C556.262 427.516 563.972 421.804 571.553 415.937L560.843 402.097L550.133 388.257C542.938 393.825 535.621 399.247 528.179 404.523L538.301 418.799ZM560.843 402.097L571.553 415.937L574.323 413.793L563.613 399.953L552.903 386.113L550.133 388.257L560.843 402.097ZM563.613 399.953L574.323 413.793L577.094 411.649L566.384 397.809L555.673 383.97L552.903 386.113L563.613 399.953ZM566.384 397.809L577.094 411.649C584.745 405.728 592.219 399.595 599.514 393.251L588.03 380.046L576.547 366.841C569.755 372.747 562.797 378.456 555.673 383.97L566.384 397.809ZM588.03 380.046L599.514 393.251L602.155 390.954L590.672 377.749L579.188 364.544L576.547 366.841L588.03 380.046ZM590.672 377.749L602.155 390.954L604.797 388.657L593.313 375.452L581.829 362.247L579.188 364.544L590.672 377.749ZM593.313 375.452L604.797 388.657C611.646 382.7 618.625 376.897 625.732 371.246L614.842 357.548L603.951 343.849C596.441 349.82 589.067 355.952 581.829 362.247L593.313 375.452ZM614.842 357.548L625.732 371.246L628.473 369.067L617.583 355.369L606.692 341.67L603.951 343.849L614.842 357.548ZM617.583 355.369L628.473 369.067L631.214 366.888L620.323 353.19L609.433 339.491L606.692 341.67L617.583 355.369ZM620.323 353.19L631.214 366.888C639.297 360.462 646.812 353.374 653.754 345.635L640.726 333.95L627.699 322.265C622.055 328.558 615.967 334.297 609.433 339.491L620.323 353.19ZM640.726 333.95L653.754 345.635L656.114 343.004L643.086 331.319L630.059 319.634L627.699 322.265L640.726 333.95ZM643.086 331.319L656.114 343.004L658.474 340.373L645.446 328.688L632.419 317.003L630.059 319.634L643.086 331.319ZM645.446 328.688L658.474 340.373C661.679 336.8 664.28 333.797 666.122 331.493C667 330.395 667.997 329.096 668.839 327.792C669.224 327.195 669.927 326.065 670.552 324.637C670.861 323.93 671.373 322.654 671.721 321.004C672.013 319.62 672.593 316.174 671.312 312.05L654.6 317.241L637.887 322.432C637.224 320.296 637.091 318.413 637.11 317.062C637.129 315.7 637.307 314.575 637.474 313.783C637.795 312.26 638.255 311.137 638.487 310.606C638.957 309.532 639.403 308.857 639.431 308.813C639.558 308.617 639.434 308.825 638.787 309.635C637.578 311.147 635.508 313.56 632.419 317.003L645.446 328.688ZM654.6 317.241L671.312 312.05L671.24 311.819L654.528 317.01L637.816 322.202L637.887 322.432L654.6 317.241ZM654.528 317.01L671.24 311.819L671.168 311.588L654.456 316.779L637.744 321.971L637.816 322.202L654.528 317.01ZM654.456 316.779L671.168 311.588C669.384 305.844 665.069 302.018 660.52 300.312C656.837 298.932 653.671 299.146 652.366 299.284C649.641 299.572 647.543 300.44 646.93 300.693C645.222 301.399 643.597 302.319 642.473 302.98C639.968 304.455 636.655 306.627 632.735 309.304L642.605 323.755L652.476 338.206C656.265 335.617 658.782 333.994 660.227 333.143C661.079 332.642 660.958 332.767 660.286 333.045C660.19 333.084 658.493 333.831 656.05 334.089C654.887 334.212 651.833 334.434 648.233 333.085C643.766 331.41 639.504 327.638 637.744 321.971L654.456 316.779ZM642.605 323.755L632.735 309.304L629.844 311.279L639.714 325.729L649.585 340.18L652.476 338.206L642.605 323.755ZM639.714 325.729L629.844 311.279L626.953 313.253L636.823 327.704L646.693 342.155L649.585 340.18L639.714 325.729ZM636.823 327.704L626.953 313.253C618.822 318.807 610.928 324.72 603.272 330.99L614.361 344.529L625.449 358.067C632.324 352.436 639.406 347.133 646.693 342.155L636.823 327.704ZM614.361 344.529L603.272 330.99L600.548 333.221L611.636 346.76L622.725 360.299L625.449 358.067L614.361 344.529ZM611.636 346.76L600.548 333.221L597.823 335.453L608.912 348.992L620 362.53L622.725 360.299L611.636 346.76ZM608.912 348.992L597.823 335.453C591.197 340.88 584.248 345.79 576.973 350.188L586.027 365.164L595.08 380.14C603.787 374.876 612.095 369.005 620 362.53L608.912 348.992ZM586.027 365.164L576.973 350.188L573.976 352L583.03 366.976L592.084 381.952L595.08 380.14L586.027 365.164ZM583.03 366.976L573.976 352L570.979 353.811L580.033 368.787L589.087 383.763L592.084 381.952L583.03 366.976ZM580.033 368.787L570.979 353.811C562.901 358.696 554.867 363.649 546.878 368.673L556.194 383.487L565.51 398.302C573.325 393.387 581.184 388.541 589.087 383.763L580.033 368.787ZM556.194 383.487L546.878 368.673L543.915 370.536L553.231 385.351L562.547 400.165L565.51 398.302L556.194 383.487ZM553.231 385.351L543.915 370.536L540.952 372.4L550.268 387.214L559.584 402.028L562.547 400.165L553.231 385.351ZM550.268 387.214L540.952 372.4C533.485 377.096 525.804 381.468 517.909 385.517L525.894 401.089L533.879 416.661C542.679 412.148 551.248 407.271 559.584 402.028L550.268 387.214ZM525.894 401.089L517.909 385.517L514.778 387.122L522.764 402.694L530.749 418.266L533.879 416.661L525.894 401.089ZM522.764 402.694L514.778 387.122L511.648 388.727L519.633 404.299L527.619 419.871L530.749 418.266L522.764 402.694ZM519.633 404.299L511.648 388.727C505.288 391.988 500.477 392.888 496.901 392.72L496.078 410.201L495.255 427.681C506.39 428.206 517.283 425.171 527.619 419.871L519.633 404.299ZM496.078 410.201L496.901 392.72L494.143 392.59L493.319 410.071L492.496 427.551L495.255 427.681L496.078 410.201ZM493.319 410.071L494.143 392.59L491.384 392.46L490.561 409.941L489.738 427.421L492.496 427.551L493.319 410.071ZM490.561 409.941L491.384 392.46C489.899 392.39 488.734 392.287 487.85 392.174C486.943 392.058 486.5 391.952 486.403 391.926C486.24 391.882 486.91 392.034 487.967 392.639C488.992 393.226 491.239 394.733 492.988 397.749L477.85 406.529L462.711 415.309C467.007 422.716 474.524 424.977 477.329 425.73C481.203 426.769 485.527 427.223 489.738 427.421L490.561 409.941ZM477.85 406.529L492.988 397.749L492.568 397.026L477.43 405.806L462.292 414.585L462.711 415.309L477.85 406.529ZM477.43 405.806L492.568 397.026L492.149 396.303L477.011 405.083L461.873 413.862L462.292 414.585L477.43 405.806ZM477.011 405.083L492.149 396.303C492.971 397.719 493.173 398.668 493.057 398.253C493.001 398.051 492.862 397.482 492.676 396.415C492.304 394.285 491.899 391.094 491.498 386.664L474.069 388.244L456.641 389.824C457.082 394.692 457.589 398.955 458.198 402.438C458.657 405.065 459.557 409.869 461.873 413.862L477.011 405.083ZM474.069 388.244L491.498 386.664L491.182 383.178L473.753 384.758L456.325 386.337L456.641 389.824L474.069 388.244Z" fill="black"/>
<path d="M907.802 478.99L890.316 478.309L907.802 478.99ZM907.768 479.865L925.255 480.547L907.768 479.865ZM904.114 512.819L886.904 509.651L904.114 512.819ZM903.956 513.679L921.167 516.846L903.956 513.679ZM903.798 514.538L886.587 511.37L903.798 514.538ZM900.175 547.715L917.663 548.356L900.175 547.715ZM900.142 548.602L882.654 547.961L900.142 548.602ZM900.11 549.488L917.598 550.129L900.11 549.488ZM893.533 581.99L877.178 575.764L893.533 581.99ZM893.219 582.814L909.574 589.04L893.219 582.814ZM892.906 583.638L876.551 577.412L892.906 583.638ZM882.304 615.352L899.115 620.212L882.304 615.352ZM882.059 616.197L865.248 611.337L882.059 616.197ZM881.815 617.042L898.626 621.902L881.815 617.042ZM869.198 647.793L884.579 656.141L869.198 647.793ZM868.779 648.566L853.398 640.218L868.779 648.566ZM868.359 649.339L852.978 640.991L868.359 649.339ZM853.419 679.257L869.333 686.537L853.419 679.257ZM853.052 680.058L837.139 672.777L853.052 680.058ZM852.686 680.859L868.599 688.14L852.686 680.859ZM834.121 708.339L821.411 696.309L834.121 708.339ZM833.51 708.984L820.801 696.954L833.51 708.984ZM832.9 709.629L845.609 721.659L832.9 709.629ZM812.295 735.902L827.019 745.36L812.295 735.902ZM811.821 736.64L797.097 727.182L811.821 736.64ZM811.347 737.378L826.072 746.836L811.347 737.378ZM789.807 762.388L801.344 775.547L789.807 762.388ZM788.487 763.545L776.95 750.387L788.487 763.545ZM764.056 786.009L751.908 773.412L764.056 786.009ZM763.43 786.613L751.282 774.016L763.43 786.613ZM762.803 787.217L774.951 799.814L762.803 787.217ZM737.819 808.787L748.508 822.642L737.819 808.787ZM737.13 809.318L747.82 823.174L737.13 809.318ZM736.441 809.85L725.751 795.994L736.441 809.85ZM709.578 829.063L699.92 814.47L709.578 829.063ZM708.853 829.543L718.511 844.137L708.853 829.543ZM708.128 830.023L698.47 815.429L708.128 830.023ZM681.045 849.35L670.392 835.466L681.045 849.35ZM679.645 850.425L690.298 864.309L679.645 850.425ZM650.483 865.975L656.068 882.56L650.483 865.975ZM648.814 866.537L643.229 849.952L648.814 866.537ZM617.776 878.671L610.627 862.698L617.776 878.671ZM616.977 879.029L624.126 895.002L616.977 879.029ZM616.178 879.387L609.029 863.413L616.178 879.387ZM584.845 890.144L580.675 873.148L584.845 890.144ZM583.995 890.352L588.164 907.348L583.995 890.352ZM583.145 890.561L578.975 873.565V873.565L583.145 890.561ZM550.578 896.918L548.051 879.602L550.578 896.918ZM549.714 897.044L552.241 914.361L549.714 897.044ZM548.85 897.171L546.323 879.854L548.85 897.171ZM516.224 904.026L511.581 887.153L516.224 904.026ZM515.371 904.261L510.728 887.388L515.371 904.261ZM514.518 904.496L519.161 921.369L514.518 904.496ZM481.58 908.221L480.812 925.705L481.58 908.221ZM480.7 908.183L481.467 890.7L480.7 908.183ZM479.819 908.144L479.052 925.627L479.819 908.144ZM446.431 907.269L446.579 889.77L446.431 907.269ZM444.677 907.254L444.53 924.754L444.677 907.254ZM410.629 904.988L408.505 922.358L410.629 904.988ZM409.76 904.881L407.636 922.252L409.76 904.881ZM377.334 897.818L372.045 914.5L377.334 897.818ZM376.497 897.553L381.786 880.871L376.497 897.553ZM375.659 897.287L370.37 913.969L375.659 897.287ZM343.796 888.018L348.276 871.101L343.796 888.018ZM342.956 887.795L338.476 904.712L342.956 887.795ZM342.116 887.573L346.597 870.656L342.116 887.573ZM310.634 877.706L316.61 861.258L310.634 877.706ZM309.817 877.409L303.841 893.857L309.817 877.409ZM309 877.112L314.976 860.664L309 877.112ZM278.306 864.876L285.284 848.828L278.306 864.876ZM277.507 864.529L270.529 880.578L277.507 864.529ZM276.709 864.182L283.687 848.133L276.709 864.182ZM245.8 851.635L239.61 868.003L245.8 851.635ZM244.972 851.321L251.162 834.953L244.972 851.321ZM244.144 851.008L237.954 867.377L244.144 851.008ZM215.345 834.56L204.382 848.199L215.345 834.56ZM214.658 834.007L225.622 820.367L214.658 834.007ZM213.971 833.455L203.007 847.095L213.971 833.455ZM188.925 811.41L176.784 824.013L188.925 811.41ZM188.294 810.802L200.435 798.199L188.294 810.802ZM187.663 810.194L175.522 822.797L187.663 810.194ZM162.878 788.135L151.771 801.659L162.878 788.135ZM161.531 787.029L172.638 773.505L161.531 787.029ZM136.402 765.282L148.188 752.347L136.402 765.282ZM135.753 764.691L123.967 777.627L135.753 764.691ZM135.104 764.1L146.89 751.164L135.104 764.1ZM113.858 738.736L128.659 729.398L113.858 738.736ZM112.92 737.249L98.1198 746.587L112.92 737.249ZM93.3272 710.29L79.8764 721.485L93.3272 710.29ZM92.7652 709.615L106.216 698.42L92.7652 709.615ZM92.2032 708.94L78.7524 720.135L92.2032 708.94ZM75.0942 680.687L58.942 687.422L75.0942 680.687ZM74.7558 679.875L90.908 673.14L74.7558 679.875ZM74.4173 679.063L90.5695 672.329L74.4173 679.063ZM60.4718 648.891L76.0645 640.947L60.4718 648.891ZM60.0763 648.115L44.4836 656.06L60.0763 648.115ZM59.6807 647.339L75.2734 639.394L59.6807 647.339ZM45.6154 617.323L29.5331 624.223L45.6154 617.323ZM44.9258 615.716L61.0081 608.815L44.9258 615.716ZM34.4833 584.297L17.4703 588.397L34.4833 584.297ZM34.2784 583.447L51.2914 579.347L34.2784 583.447ZM25.5877 550.403L8.76391 555.221L25.5877 550.403ZM25.346 549.559L42.1698 544.741L25.346 549.559ZM25.1042 548.715L8.28037 553.532L25.1042 548.715ZM19.2425 516.06L1.79323 517.392L19.2425 516.06ZM17.5548 480.201L0.0571079 480.487L17.5548 480.201ZM18.9269 445.306L1.5059 443.646L18.9269 445.306ZM19.0098 444.437L36.4309 446.097L19.0098 444.437ZM22.2481 411.48L39.6592 413.242L22.2481 411.48ZM22.3357 410.615L4.92462 408.853L22.3357 410.615ZM22.4232 409.75L39.8342 411.513L22.4232 409.75ZM25.1869 375.704L42.6528 376.796L25.1869 375.704ZM25.2419 374.824L7.77599 373.732L25.2419 374.824ZM30.8559 342.029L14.0237 337.241L30.8559 342.029ZM31.3368 340.339L48.169 345.127L31.3368 340.339ZM43.0204 309.167L58.8534 316.621L43.0204 309.167ZM43.3949 308.371L27.5619 300.917L43.3949 308.371ZM43.7694 307.576L59.6024 315.03L43.7694 307.576ZM57.3433 277.164L73.4655 283.971L57.3433 277.164ZM57.6833 276.359L41.5611 269.553L57.6833 276.359ZM58.0232 275.554L74.1454 282.36L58.0232 275.554ZM73.0801 246.053L88.0502 255.117L73.0801 246.053ZM73.9851 244.558L59.0149 235.495L73.9851 244.558ZM91.7354 216.539L77.1455 206.875L91.7354 216.539ZM92.2171 215.812L106.807 225.475L92.2171 215.812ZM92.6988 215.084L78.1089 205.421L92.6988 215.084ZM110.395 186.797L125.464 195.694L110.395 186.797ZM110.844 186.035L95.7749 177.138L110.844 186.035ZM111.294 185.273L126.363 194.171L111.294 185.273ZM131.117 158.423L118.181 146.637L131.117 158.423ZM131.71 157.772L144.647 169.557L131.71 157.772ZM132.304 157.12L119.368 145.334L132.304 157.12ZM156.953 134.615L146.388 120.664L156.953 134.615ZM157.657 134.082L147.092 120.131L157.657 134.082ZM158.36 133.549L168.925 147.501L158.36 133.549ZM184.614 112.915L195.676 126.475L184.614 112.915ZM185.292 112.361L174.23 98.8012L185.292 112.361ZM185.97 111.808L197.032 125.369L185.97 111.808ZM212.449 91.679L202.341 77.3933L212.449 91.679ZM213.164 91.1727L223.272 105.458L213.164 91.1727ZM213.88 90.6665L203.772 76.3808L213.88 90.6665ZM242.863 74.5656L249.656 90.6932L242.863 74.5656ZM244.483 73.8832L237.689 57.7556L244.483 73.8832ZM274.138 58.7522L265.066 43.7873L274.138 58.7522ZM275.64 57.8418L284.712 72.8066L275.64 57.8418ZM305.177 42.3751L298.043 26.3954L305.177 42.3751ZM306.785 41.6574L313.919 57.6371L306.785 41.6574ZM338.62 32.1829L341.391 49.462L338.62 32.1829ZM339.492 32.043L336.72 14.7639L339.492 32.043ZM340.363 31.9032L343.135 49.1824L340.363 31.9032ZM373.299 26.7008L375.988 43.993L373.299 26.7008ZM374.16 26.5668L376.849 43.859L374.16 26.5668ZM375.022 26.4329L372.333 9.14066L375.022 26.4329ZM407.759 21.5583L405.294 4.23284L407.759 21.5583ZM409.482 21.3132L411.947 38.6386L409.482 21.3132ZM442.39 18.2853L441.652 0.800918L442.39 18.2853ZM512.217 18.5573L513.34 1.09345L512.217 18.5573ZM513.09 18.6135L511.966 36.0774L513.09 18.6135ZM513.964 18.6697L515.087 1.20586L513.964 18.6697ZM546.451 24.908L551.866 8.26661L546.451 24.908ZM548.124 25.4522L542.71 42.0936L548.124 25.4522ZM579.931 34.9442L575.345 51.8327L579.931 34.9442ZM580.769 35.1717L585.355 18.2832L580.769 35.1717ZM581.606 35.3991L577.02 52.2876L581.606 35.3991ZM613.076 45.2452L618.933 28.7544L613.076 45.2452ZM614.713 45.8267L608.856 62.3174L614.713 45.8267ZM646.625 55.5568L650.983 38.6081L646.625 55.5568ZM647.486 55.7782L643.128 72.7269L647.486 55.7782ZM648.347 55.9995L652.704 39.0508L648.347 55.9995ZM678.027 70.4908L688.721 56.6384L678.027 70.4908ZM678.729 71.0321L668.035 84.8845L678.729 71.0321ZM679.43 71.5735L690.124 57.7211L679.43 71.5735ZM707.433 89.7704L699.131 105.176L707.433 89.7704ZM708.978 90.6032L717.281 75.198L708.978 90.6032ZM736.98 108.549L747.509 94.5714L736.98 108.549ZM738.382 109.606L727.853 123.584L738.382 109.606ZM762.949 131.982L750.014 143.769L762.949 131.982ZM763.541 132.631L776.477 120.845L763.541 132.631ZM764.133 133.281L751.198 145.068L764.133 133.281ZM787.685 156.872L775.878 169.789L787.685 156.872ZM788.333 157.464L800.14 144.548L788.333 157.464ZM788.981 158.057L800.788 145.14L788.981 158.057ZM811.166 182.722L825.258 172.346L811.166 182.722ZM812.206 184.135L798.114 194.511L812.206 184.135ZM832.005 210.943L817.943 221.36L832.005 210.943ZM832.527 211.648L846.589 201.231L832.527 211.648ZM833.049 212.352L818.987 222.769L833.049 212.352ZM849.9 240.922L865.819 233.653L849.9 240.922ZM850.265 241.721L866.184 234.452L850.265 241.721ZM850.629 242.519L834.71 249.788L850.629 242.519ZM864.19 272.867L848.155 279.876L864.19 272.867ZM864.539 273.665L880.574 266.656L864.539 273.665ZM864.888 274.463L848.853 281.473L864.888 274.463ZM878.402 304.749L862.476 312.002L878.402 304.749ZM879.127 306.341L895.054 299.088L879.127 306.341ZM891.252 337.271L907.863 331.766L891.252 337.271ZM891.803 338.936L875.192 344.441L891.803 338.936ZM898.104 371.458L880.639 372.565L898.104 371.458ZM898.159 372.338L915.624 371.231V371.231L898.159 372.338ZM898.215 373.217L880.75 374.324L898.215 373.217ZM904.558 406.018L921.185 400.559L904.558 406.018ZM904.836 406.865L888.209 412.324L904.836 406.865ZM905.114 407.712L921.741 402.253L905.114 407.712ZM907.911 440.563L925.221 443.132L907.911 440.563ZM907.78 441.445L925.091 444.014L907.78 441.445ZM907.649 442.327L890.339 439.759L907.649 442.327ZM906.74 460.229L917.008 446.057L906.74 460.229ZM906.907 460.349L896.639 474.52L906.907 460.349ZM907.836 478.116L925.323 478.797L907.836 478.116ZM907.802 478.99L890.316 478.309L890.281 479.184L907.768 479.865L925.255 480.547L925.289 479.672L907.802 478.99ZM907.768 479.865L890.281 479.184C889.882 489.433 888.756 499.587 886.904 509.651L904.114 512.819L921.325 515.987C923.481 504.277 924.791 492.462 925.255 480.547L907.768 479.865ZM904.114 512.819L886.904 509.651L886.745 510.511L903.956 513.679L921.167 516.846L921.325 515.987L904.114 512.819ZM903.956 513.679L886.745 510.511L886.587 511.37L903.798 514.538L921.009 517.706L921.167 516.846L903.956 513.679ZM903.798 514.538L886.587 511.37C884.427 523.104 883.129 535.008 882.687 547.074L900.175 547.715L917.663 548.356C918.044 537.96 919.161 527.746 921.009 517.706L903.798 514.538ZM900.175 547.715L882.687 547.074L882.654 547.961L900.142 548.602L917.631 549.242L917.663 548.356L900.175 547.715ZM900.142 548.602L882.654 547.961L882.622 548.847L900.11 549.488L917.598 550.129L917.631 549.242L900.142 548.602ZM900.11 549.488L882.622 548.847C882.28 558.18 880.466 567.126 877.178 575.764L893.533 581.99L909.888 588.216C914.546 575.98 917.117 563.259 917.598 550.129L900.11 549.488ZM893.533 581.99L877.178 575.764L876.864 576.588L893.219 582.814L909.574 589.04L909.888 588.216L893.533 581.99ZM893.219 582.814L876.864 576.588L876.551 577.412L892.906 583.638L909.261 589.864L909.574 589.04L893.219 582.814ZM892.906 583.638L876.551 577.412C872.407 588.297 868.721 599.324 865.492 610.492L882.304 615.352L899.115 620.212C902.076 609.969 905.458 599.853 909.261 589.864L892.906 583.638ZM882.304 615.352L865.492 610.492L865.248 611.337L882.059 616.197L898.871 621.057L899.115 620.212L882.304 615.352ZM882.059 616.197L865.248 611.337L865.003 612.182L881.815 617.042L898.626 621.902L898.871 621.057L882.059 616.197ZM881.815 617.042L865.003 612.182C862.258 621.677 858.533 630.758 853.818 639.445L869.198 647.793L884.579 656.141C890.496 645.239 895.181 633.819 898.626 621.902L881.815 617.042ZM869.198 647.793L853.818 639.445L853.398 640.218L868.779 648.566L884.159 656.914L884.579 656.141L869.198 647.793ZM868.779 648.566L853.398 640.218L852.978 640.991L868.359 649.339L883.74 657.687L884.159 656.914L868.779 648.566ZM868.359 649.339L852.978 640.991C847.472 651.136 842.315 661.464 837.505 671.976L853.419 679.257L869.333 686.537C873.811 676.748 878.614 667.132 883.74 657.687L868.359 649.339ZM853.419 679.257L837.505 671.976L837.139 672.777L853.052 680.058L868.966 687.339L869.333 686.537L853.419 679.257ZM853.052 680.058L837.139 672.777L836.772 673.579L852.686 680.859L868.599 688.14L868.966 687.339L853.052 680.058ZM852.686 680.859L836.772 673.579C832.934 681.967 827.833 689.525 821.411 696.309L834.121 708.339L846.83 720.369C855.874 710.814 863.149 700.053 868.599 688.14L852.686 680.859ZM834.121 708.339L821.411 696.309L820.801 696.954L833.51 708.984L846.22 721.014L846.83 720.369L834.121 708.339ZM833.51 708.984L820.801 696.954L820.19 697.599L832.9 709.629L845.609 721.659L846.22 721.014L833.51 708.984ZM832.9 709.629L820.19 697.599C811.717 706.551 804.172 716.168 797.571 726.444L812.295 735.902L827.019 745.36C832.426 736.944 838.617 729.046 845.609 721.659L832.9 709.629ZM812.295 735.902L797.571 726.444L797.097 727.182L811.821 736.64L826.545 746.098L827.019 745.36L812.295 735.902ZM811.821 736.64L797.097 727.182L796.623 727.92L811.347 737.378L826.072 746.836L826.545 746.098L811.821 736.64ZM811.347 737.378L796.623 727.92C791.504 735.889 785.397 742.981 778.27 749.23L789.807 762.388L801.344 775.547C810.93 767.141 819.183 757.559 826.072 746.836L811.347 737.378ZM789.807 762.388L778.27 749.23L777.61 749.809L789.147 762.967L800.685 776.125L801.344 775.547L789.807 762.388ZM789.147 762.967L777.61 749.809L776.95 750.387L788.487 763.545L800.025 776.704L800.685 776.125L789.147 762.967ZM788.487 763.545L776.95 750.387C768.387 757.895 760.04 765.57 751.908 773.412L764.056 786.009L776.203 798.606C783.934 791.151 791.874 783.85 800.025 776.704L788.487 763.545ZM764.056 786.009L751.908 773.412L751.282 774.016L763.43 786.613L775.577 799.21L776.203 798.606L764.056 786.009ZM763.43 786.613L751.282 774.016L750.656 774.62L762.803 787.217L774.951 799.814L775.577 799.21L763.43 786.613ZM762.803 787.217L750.656 774.62C743.187 781.822 735.346 788.592 727.129 794.931L737.819 808.787L748.508 822.642C757.742 815.518 766.557 807.908 774.951 799.814L762.803 787.217ZM737.819 808.787L727.129 794.931L726.44 795.462L737.13 809.318L747.82 823.174L748.508 822.642L737.819 808.787ZM737.13 809.318L726.44 795.462L725.751 795.994L736.441 809.85L747.131 823.705L747.82 823.174L737.13 809.318ZM736.441 809.85L725.751 795.994C717.361 802.467 708.75 808.626 699.92 814.47L709.578 829.063L719.236 843.657C728.772 837.346 738.071 830.695 747.131 823.705L736.441 809.85ZM709.578 829.063L699.92 814.47L699.195 814.949L708.853 829.543L718.511 844.137L719.236 843.657L709.578 829.063ZM708.853 829.543L699.195 814.949L698.47 815.429L708.128 830.023L717.786 844.617L718.511 844.137L708.853 829.543ZM708.128 830.023L698.47 815.429C688.941 821.735 679.582 828.415 670.392 835.466L681.045 849.35L691.698 863.234C700.252 856.671 708.947 850.466 717.786 844.617L708.128 830.023ZM681.045 849.35L670.392 835.466L669.692 836.003L680.345 849.887L690.998 863.771L691.698 863.234L681.045 849.35ZM680.345 849.887L669.692 836.003L668.991 836.541L679.645 850.425L690.298 864.309L690.998 863.771L680.345 849.887ZM679.645 850.425L668.991 836.541C661.645 842.178 653.636 846.447 644.897 849.39L650.483 865.975L656.068 882.56C668.469 878.383 679.901 872.286 690.298 864.309L679.645 850.425ZM650.483 865.975L644.897 849.39L644.063 849.671L649.648 866.256L655.234 882.841L656.068 882.56L650.483 865.975ZM649.648 866.256L644.063 849.671L643.229 849.952L648.814 866.537L654.399 883.122L655.234 882.841L649.648 866.256ZM648.814 866.537L643.229 849.952C632.131 853.689 621.263 857.938 610.627 862.698L617.776 878.671L624.925 894.645C634.533 890.345 644.357 886.504 654.399 883.122L648.814 866.537ZM617.776 878.671L610.627 862.698L609.828 863.056L616.977 879.029L624.126 895.002L624.925 894.645L617.776 878.671ZM616.977 879.029L609.828 863.056L609.029 863.413L616.178 879.387L623.327 895.36L624.126 895.002L616.977 879.029ZM616.178 879.387L609.029 863.413C599.867 867.514 590.42 870.757 580.675 873.148L584.845 890.144L589.014 907.14C600.803 904.248 612.245 900.32 623.327 895.36L616.178 879.387ZM584.845 890.144L580.675 873.148L579.825 873.356L583.995 890.352L588.164 907.348L589.014 907.14L584.845 890.144ZM583.995 890.352L579.825 873.356L578.975 873.565L583.145 890.561L587.314 907.557L588.164 907.348L583.995 890.352ZM583.145 890.561L578.975 873.565C568.749 876.073 558.442 878.086 548.051 879.602L550.578 896.918L553.105 914.235C564.603 912.557 576.007 910.331 587.314 907.557L583.145 890.561ZM550.578 896.918L548.051 879.602L547.187 879.728L549.714 897.044L552.241 914.361L553.105 914.235L550.578 896.918ZM549.714 897.044L547.187 879.728L546.323 879.854L548.85 897.171L551.377 914.487L552.241 914.361L549.714 897.044ZM548.85 897.171L546.323 879.854C534.655 881.556 523.073 883.991 511.581 887.153L516.224 904.026L520.867 920.899C530.987 918.115 541.155 915.979 551.377 914.487L548.85 897.171ZM516.224 904.026L511.581 887.153L510.728 887.388L515.371 904.261L520.014 921.134L520.867 920.899L516.224 904.026ZM515.371 904.261L510.728 887.388L509.875 887.623L514.518 904.496L519.161 921.369L520.014 921.134L515.371 904.261ZM514.518 904.496L509.875 887.623C500.822 890.114 491.668 891.148 482.348 890.738L481.58 908.221L480.812 925.705C493.797 926.275 506.601 924.825 519.161 921.369L514.518 904.496ZM481.58 908.221L482.348 890.738L481.467 890.7L480.7 908.183L479.932 925.666L480.812 925.705L481.58 908.221ZM480.7 908.183L481.467 890.7L480.587 890.661L479.819 908.144L479.052 925.627L479.932 925.666L480.7 908.183ZM479.819 908.144L480.587 890.661C469.229 890.162 457.893 889.865 446.579 889.77L446.431 907.269L446.283 924.768C457.182 924.86 468.105 925.147 479.052 925.627L479.819 908.144ZM446.431 907.269L446.579 889.77L445.702 889.762L445.554 907.262L445.406 924.761L446.283 924.768L446.431 907.269ZM445.554 907.262L445.702 889.762L444.825 889.755L444.677 907.254L444.53 924.754L445.406 924.761L445.554 907.262ZM444.677 907.254L444.825 889.755C434.378 889.667 423.978 888.99 413.622 887.723L411.499 905.094L409.375 922.465C421.044 923.891 432.763 924.654 444.53 924.754L444.677 907.254ZM411.499 905.094L413.622 887.723L412.753 887.617L410.629 904.988L408.505 922.358L409.375 922.465L411.499 905.094ZM410.629 904.988L412.753 887.617L411.884 887.511L409.76 904.881L407.636 922.252L408.505 922.358L410.629 904.988ZM409.76 904.881L411.884 887.511C401.948 886.296 392.199 884.173 382.623 881.136L377.334 897.818L372.045 914.5C383.678 918.188 395.546 920.774 407.636 922.252L409.76 904.881ZM377.334 897.818L382.623 881.136L381.786 880.871L376.497 897.553L371.207 914.234L372.045 914.5L377.334 897.818ZM376.497 897.553L381.786 880.871L380.949 880.606L375.659 897.287L370.37 913.969L371.207 914.234L376.497 897.553ZM375.659 897.287L380.949 880.606C370.079 877.159 359.188 873.991 348.276 871.101L343.796 888.018L339.316 904.934C349.679 907.679 360.03 910.69 370.37 913.969L375.659 897.287ZM343.796 888.018L348.276 871.101L347.436 870.878L342.956 887.795L338.476 904.712L339.316 904.934L343.796 888.018ZM342.956 887.795L347.436 870.878L346.597 870.656L342.116 887.573L337.636 904.489L338.476 904.712L342.956 887.795ZM342.116 887.573L346.597 870.656C336.465 867.973 326.47 864.84 316.61 861.258L310.634 877.706L304.658 894.154C315.5 898.093 326.493 901.538 337.636 904.489L342.116 887.573ZM310.634 877.706L316.61 861.258L315.793 860.961L309.817 877.409L303.841 893.857L304.658 894.154L310.634 877.706ZM309.817 877.409L315.793 860.961L314.976 860.664L309 877.112L303.024 893.56L303.841 893.857L309.817 877.409ZM309 877.112L314.976 860.664C304.964 857.027 295.066 853.081 285.284 848.828L278.306 864.876L271.328 880.925C281.769 885.465 292.335 889.677 303.024 893.56L309 877.112ZM278.306 864.876L285.284 848.828L284.485 848.481L277.507 864.529L270.529 880.578L271.328 880.925L278.306 864.876ZM277.507 864.529L284.485 848.481L283.687 848.133L276.709 864.182L269.731 880.231L270.529 880.578L277.507 864.529ZM276.709 864.182L283.687 848.133C273.31 843.622 262.744 839.333 251.99 835.266L245.8 851.635L239.61 868.003C249.843 871.873 259.883 875.949 269.731 880.231L276.709 864.182ZM245.8 851.635L251.99 835.266L251.162 834.953L244.972 851.321L238.782 867.69L239.61 868.003L245.8 851.635ZM244.972 851.321L251.162 834.953L250.334 834.639L244.144 851.008L237.954 867.377L238.782 867.69L244.972 851.321ZM244.144 851.008L250.334 834.639C241.557 831.32 233.57 826.756 226.309 820.92L215.345 834.56L204.382 848.199C214.531 856.357 225.743 862.759 237.954 867.377L244.144 851.008ZM215.345 834.56L226.309 820.92L225.622 820.367L214.658 834.007L203.694 847.647L204.382 848.199L215.345 834.56ZM214.658 834.007L225.622 820.367L224.935 819.815L213.971 833.455L203.007 847.095L203.694 847.647L214.658 834.007ZM213.971 833.455L224.935 819.815C216.634 813.143 208.679 806.141 201.066 798.807L188.925 811.41L176.784 824.013C185.155 832.077 193.896 839.771 203.007 847.095L213.971 833.455ZM188.925 811.41L201.066 798.807L200.435 798.199L188.294 810.802L176.153 823.405L176.784 824.013L188.925 811.41ZM188.294 810.802L200.435 798.199L199.805 797.591L187.663 810.194L175.522 822.797L176.153 823.405L188.294 810.802ZM187.663 810.194L199.805 797.591C191.482 789.573 182.875 781.913 173.985 774.611L162.878 788.135L151.771 801.659C159.944 808.371 167.861 815.417 175.522 822.797L187.663 810.194ZM162.878 788.135L173.985 774.611L173.311 774.058L162.205 787.582L151.098 801.105L151.771 801.659L162.878 788.135ZM162.205 787.582L173.311 774.058L172.638 773.505L161.531 787.029L150.424 800.552L151.098 801.105L162.205 787.582ZM161.531 787.029L172.638 773.505C164.34 766.69 156.19 759.637 148.188 752.347L136.402 765.282L124.616 778.218C133.057 785.909 141.659 793.354 150.424 800.552L161.531 787.029ZM136.402 765.282L148.188 752.347L147.539 751.755L135.753 764.691L123.967 777.627L124.616 778.218L136.402 765.282ZM135.753 764.691L147.539 751.755L146.89 751.164L135.104 764.1L123.318 777.036L123.967 777.627L135.753 764.691ZM135.104 764.1L146.89 751.164C139.833 744.733 133.764 737.489 128.659 729.398L113.858 738.736L99.0581 748.074C105.838 758.82 113.934 768.485 123.318 777.036L135.104 764.1ZM113.858 738.736L128.659 729.398L128.189 728.654L113.389 737.992L98.5889 747.331L99.0581 748.074L113.858 738.736ZM113.389 737.992L128.189 728.654L127.72 727.91L112.92 737.249L98.1198 746.587L98.5889 747.331L113.389 737.992ZM112.92 737.249L127.72 727.91C121.369 717.844 114.387 708.238 106.778 699.095L93.3272 710.29L79.8764 721.485C86.5051 729.45 92.5853 737.815 98.1198 746.587L112.92 737.249ZM93.3272 710.29L106.778 699.095L106.216 698.42L92.7652 709.615L79.3144 720.81L79.8764 721.485L93.3272 710.29ZM92.7652 709.615L106.216 698.42L105.654 697.745L92.2032 708.94L78.7524 720.135L79.3144 720.81L92.7652 709.615ZM92.2032 708.94L105.654 697.745C99.6543 690.536 94.8615 682.622 91.2464 673.952L75.0942 680.687L58.942 687.422C63.901 699.315 70.5141 710.236 78.7524 720.135L92.2032 708.94ZM75.0942 680.687L91.2464 673.952L90.908 673.14L74.7558 679.875L58.6036 686.61L58.942 687.422L75.0942 680.687ZM74.7558 679.875L90.908 673.14L90.5695 672.329L74.4173 679.063L58.2651 685.798L58.6036 686.61L74.7558 679.875ZM74.4173 679.063L90.5695 672.329C86.1131 661.64 81.2782 651.179 76.0645 640.947L60.4718 648.891L44.8791 656.836C49.6854 666.269 54.1476 675.923 58.2651 685.798L74.4173 679.063ZM60.4718 648.891L76.0645 640.947L75.6689 640.17L60.0763 648.115L44.4836 656.06L44.8791 656.836L60.4718 648.891ZM60.0763 648.115L75.6689 640.17L75.2734 639.394L59.6807 647.339L44.0881 655.284L44.4836 656.06L60.0763 648.115ZM59.6807 647.339L75.2734 639.394C70.4386 629.905 65.9134 620.248 61.6976 610.423L45.6154 617.323L29.5331 624.223C34.0512 634.753 38.9028 645.107 44.0881 655.284L59.6807 647.339ZM45.6154 617.323L61.6976 610.423L61.3528 609.619L45.2706 616.519L29.1884 623.419L29.5331 624.223L45.6154 617.323ZM45.2706 616.519L61.3528 609.619L61.0081 608.815L44.9258 615.716L28.8436 622.616L29.1884 623.419L45.2706 616.519ZM44.9258 615.716L61.0081 608.815C57.0297 599.543 53.8602 590.007 51.4963 580.197L34.4833 584.297L17.4703 588.397C20.2959 600.122 24.0881 611.532 28.8436 622.616L44.9258 615.716ZM34.4833 584.297L51.4963 580.197L51.2914 579.347L34.2784 583.447L17.2654 587.547L17.4703 588.397L34.4833 584.297ZM34.2784 583.447L51.2914 579.347L51.0866 578.497L34.0736 582.597L17.0606 586.696L17.2654 587.547L34.2784 583.447ZM34.0736 582.597L51.0866 578.497C48.4335 567.487 45.5418 556.517 42.4115 545.586L25.5877 550.403L8.76391 555.221C11.7585 565.678 14.524 576.17 17.0606 586.696L34.0736 582.597ZM25.5877 550.403L42.4115 545.586L42.1698 544.741L25.346 549.559L8.52214 554.377L8.76391 555.221L25.5877 550.403ZM25.346 549.559L42.1698 544.741L41.928 543.897L25.1042 548.715L8.28037 553.532L8.52214 554.377L25.346 549.559ZM25.1042 548.715L41.928 543.897C39.1909 534.339 37.4469 524.622 36.6917 514.728L19.2425 516.06L1.79323 517.392C2.72885 529.649 4.89266 541.702 8.28037 553.532L25.1042 548.715ZM19.2425 516.06L36.6917 514.728L36.625 513.854L19.1757 515.186L1.72648 516.518L1.79323 517.392L19.2425 516.06ZM19.1757 515.186L36.625 513.854L36.5582 512.979L19.109 514.311L1.65974 515.643L1.72648 516.518L19.1757 515.186ZM19.109 514.311L36.5582 512.979C35.7393 502.251 35.2422 491.522 35.0667 480.789L17.5691 481.075L0.071413 481.362C0.258326 492.793 0.787821 504.221 1.65974 515.643L19.109 514.311ZM17.5691 481.075L35.0667 480.789L35.0524 479.914L17.5548 480.201L0.0571079 480.487L0.071413 481.362L17.5691 481.075ZM17.5548 480.201L35.0524 479.914L35.0381 479.04L17.5405 479.326L0.0428047 479.612L0.0571079 480.487L17.5548 480.201ZM17.5405 479.326L35.0381 479.04C34.8675 468.606 35.2766 458.207 36.2651 447.837L18.844 446.176L1.42299 444.516C0.310999 456.181 -0.148998 467.881 0.0428047 479.612L17.5405 479.326ZM18.844 446.176L36.2651 447.837L36.348 446.967L18.9269 445.306L1.5059 443.646L1.42299 444.516L18.844 446.176ZM18.9269 445.306L36.348 446.967L36.4309 446.097L19.0098 444.437L1.58881 442.776L1.5059 443.646L18.9269 445.306ZM19.0098 444.437L36.4309 446.097C37.4779 435.113 38.554 424.162 39.6592 413.242L22.2481 411.48L4.8371 409.718C3.72502 420.705 2.64226 431.725 1.58881 442.776L19.0098 444.437ZM22.2481 411.48L39.6592 413.242L39.7467 412.377L22.3357 410.615L4.92462 408.853L4.8371 409.718L22.2481 411.48ZM22.3357 410.615L39.7467 412.377L39.8342 411.513L22.4232 409.75L5.01215 407.988L4.92462 408.853L22.3357 410.615ZM22.4232 409.75L39.8342 411.513C40.9658 400.333 41.8869 389.054 42.5978 377.677L25.1319 376.585L7.66591 375.494C6.98256 386.43 6.09784 397.261 5.01215 407.988L22.4232 409.75ZM25.1319 376.585L42.5978 377.677L42.6528 376.796L25.1869 375.704L7.72095 374.613L7.66591 375.494L25.1319 376.585ZM25.1869 375.704L42.6528 376.796L42.7079 375.915L25.2419 374.824L7.77599 373.732L7.72095 374.613L25.1869 375.704ZM25.2419 374.824L42.7079 375.915C43.3271 366.004 44.9872 356.313 47.6882 346.818L30.8559 342.029L14.0237 337.241C10.6337 349.159 8.55099 361.33 7.77599 373.732L25.2419 374.824ZM30.8559 342.029L47.6882 346.818L47.9286 345.972L31.0964 341.184L14.2642 336.396L14.0237 337.241L30.8559 342.029ZM31.0964 341.184L47.9286 345.972L48.169 345.127L31.3368 340.339L14.5046 335.551L14.2642 336.396L31.0964 341.184ZM31.3368 340.339L48.169 345.127C50.9544 335.336 54.5146 325.837 58.8534 316.621L43.0204 309.167L27.1874 301.712C22.0392 312.647 17.8104 323.93 14.5046 335.551L31.3368 340.339ZM43.0204 309.167L58.8534 316.621L59.2279 315.826L43.3949 308.371L27.5619 300.917L27.1874 301.712L43.0204 309.167ZM43.3949 308.371L59.2279 315.826L59.6024 315.03L43.7694 307.576L27.9364 300.122L27.5619 300.917L43.3949 308.371ZM43.7694 307.576L59.6024 315.03C64.446 304.742 69.0672 294.389 73.4655 283.971L57.3433 277.164L41.2212 270.358C37.0079 280.338 32.5797 290.259 27.9364 300.122L43.7694 307.576ZM57.3433 277.164L73.4655 283.971L73.8054 283.165L57.6833 276.359L41.5611 269.553L41.2212 270.358L57.3433 277.164ZM57.6833 276.359L73.8054 283.165L74.1454 282.36L58.0232 275.554L41.9011 268.747L41.5611 269.553L57.6833 276.359ZM58.0232 275.554L74.1454 282.36C78.1223 272.94 82.7563 263.861 88.0502 255.117L73.0801 246.053L58.1099 236.99C51.9396 247.182 46.5357 257.769 41.9011 268.747L58.0232 275.554ZM73.0801 246.053L88.0502 255.117L88.5028 254.369L73.5326 245.306L58.5624 236.242L58.1099 236.99L73.0801 246.053ZM73.5326 245.306L88.5028 254.369L88.9553 253.622L73.9851 244.558L59.0149 235.495L58.5624 236.242L73.5326 245.306ZM73.9851 244.558L88.9553 253.622C94.5649 244.356 100.355 235.216 106.325 226.202L91.7354 216.539L77.1455 206.875C70.913 216.285 64.8695 225.825 59.0149 235.495L73.9851 244.558ZM91.7354 216.539L106.325 226.202L106.807 225.475L92.2171 215.812L77.6272 206.148L77.1455 206.875L91.7354 216.539ZM92.2171 215.812L106.807 225.475L107.289 224.748L92.6988 215.084L78.1089 205.421L77.6272 206.148L92.2171 215.812ZM92.6988 215.084L107.289 224.748C113.559 215.281 119.617 205.597 125.464 195.694L110.395 186.797L95.3253 177.899C89.7805 187.29 84.0416 196.464 78.1089 205.421L92.6988 215.084ZM110.395 186.797L125.464 195.694L125.914 194.933L110.844 186.035L95.7749 177.138L95.3253 177.899L110.395 186.797ZM110.844 186.035L125.914 194.933L126.363 194.171L111.294 185.273L96.2246 176.376L95.7749 177.138L110.844 186.035ZM111.294 185.273L126.363 194.171C131.451 185.554 137.345 177.572 144.053 170.209L131.117 158.423L118.181 146.637C109.85 155.781 102.528 165.699 96.2246 176.376L111.294 185.273ZM131.117 158.423L144.053 170.209L144.647 169.557L131.71 157.772L118.774 145.986L118.181 146.637L131.117 158.423ZM131.71 157.772L144.647 169.557L145.24 168.906L132.304 157.12L119.368 145.334L118.774 145.986L131.71 157.772ZM132.304 157.12L145.24 168.906C152.036 161.446 159.459 154.669 167.518 148.566L156.953 134.615L146.388 120.664C136.621 128.06 127.611 136.287 119.368 145.334L132.304 157.12ZM156.953 134.615L167.518 148.566L168.221 148.034L157.657 134.082L147.092 120.131L146.388 120.664L156.953 134.615ZM157.657 134.082L168.221 148.034L168.925 147.501L158.36 133.549L147.796 119.598L147.092 120.131L157.657 134.082ZM158.36 133.549L168.925 147.501C178.005 140.625 186.922 133.616 195.676 126.475L184.614 112.915L173.552 99.3544C165.127 106.227 156.542 112.975 147.796 119.598L158.36 133.549ZM184.614 112.915L195.676 126.475L196.354 125.922L185.292 112.361L174.23 98.8012L173.552 99.3544L184.614 112.915ZM185.292 112.361L196.354 125.922L197.032 125.369L185.97 111.808L174.908 98.248L174.23 98.8012L185.292 112.361ZM185.97 111.808L197.032 125.369C205.312 118.615 213.82 112.147 222.557 105.965L212.449 91.679L202.341 77.3933C192.952 84.0363 183.808 90.988 174.908 98.248L185.97 111.808ZM212.449 91.679L222.557 105.965L223.272 105.458L213.164 91.1727L203.056 76.8871L202.341 77.3933L212.449 91.679ZM213.164 91.1727L223.272 105.458L223.988 104.952L213.88 90.6665L203.772 76.3808L203.056 76.8871L213.164 91.1727ZM213.88 90.6665L223.988 104.952C232.013 99.2739 240.562 94.5238 249.656 90.6932L242.863 74.5656L236.069 58.438C224.645 63.2502 213.872 69.2341 203.772 76.3808L213.88 90.6665ZM242.863 74.5656L249.656 90.6932L250.466 90.352L243.673 74.2244L236.879 58.0968L236.069 58.438L242.863 74.5656ZM243.673 74.2244L250.466 90.352L251.276 90.0108L244.483 73.8832L237.689 57.7556L236.879 58.0968L243.673 74.2244ZM244.483 73.8832L251.276 90.0108C262.321 85.3582 272.968 79.926 283.21 73.7171L274.138 58.7522L265.066 43.7873C256.286 49.1102 247.162 53.7654 237.689 57.7556L244.483 73.8832ZM274.138 58.7522L283.21 73.7171L283.961 73.2618L274.889 58.297L265.817 43.3321L265.066 43.7873L274.138 58.7522ZM274.889 58.297L283.961 73.2618L284.712 72.8066L275.64 57.8418L266.568 42.8769L265.817 43.3321L274.889 58.297ZM275.64 57.8418L284.712 72.8066C293.598 67.42 302.796 62.6032 312.312 58.3548L305.177 42.3751L298.043 26.3954C287.198 31.2374 276.705 36.7317 266.568 42.8769L275.64 57.8418ZM305.177 42.3751L312.312 58.3548L313.115 57.996L305.981 42.0163L298.847 26.0366L298.043 26.3954L305.177 42.3751ZM305.981 42.0163L313.115 57.996L313.919 57.6371L306.785 41.6574L299.65 25.6777L298.847 26.0366L305.981 42.0163ZM306.785 41.6574L313.919 57.6371C322.704 53.7152 331.848 50.9926 341.391 49.462L338.62 32.1829L335.848 14.9037C323.306 16.9154 311.227 20.5093 299.65 25.6777L306.785 41.6574ZM338.62 32.1829L341.391 49.462L342.263 49.3222L339.492 32.043L336.72 14.7639L335.848 14.9037L338.62 32.1829ZM339.492 32.043L342.263 49.3222L343.135 49.1824L340.363 31.9032L337.592 14.624L336.72 14.7639L339.492 32.043ZM340.363 31.9032L343.135 49.1824C354.15 47.4156 365.101 45.6858 375.988 43.993L373.299 26.7008L370.61 9.40862C359.668 11.11 348.662 12.8485 337.592 14.624L340.363 31.9032ZM373.299 26.7008L375.988 43.993L376.849 43.859L374.16 26.5668L371.471 9.27464L370.61 9.40862L373.299 26.7008ZM374.16 26.5668L376.849 43.859L377.711 43.725L375.022 26.4329L372.333 9.14066L371.471 9.27464L374.16 26.5668ZM375.022 26.4329L377.711 43.725C388.551 42.0395 399.388 40.4257 410.225 38.8838L407.759 21.5583L405.294 4.23284C394.308 5.79608 383.321 7.43202 372.333 9.14066L375.022 26.4329ZM407.759 21.5583L410.225 38.8838L411.086 38.7612L408.62 21.4357L406.155 4.11026L405.294 4.23284L407.759 21.5583ZM408.62 21.4357L411.086 38.7612L411.947 38.6386L409.482 21.3132L407.016 3.98769L406.155 4.11026L408.62 21.4357ZM409.482 21.3132L411.947 38.6386C422.285 37.1676 432.678 36.2113 443.129 35.7697L442.39 18.2853L441.652 0.800918C430.046 1.29124 418.501 2.35347 407.016 3.98769L409.482 21.3132ZM442.39 18.2853L443.129 35.7697L444 35.7329L443.261 18.2485L442.522 0.764132L441.652 0.800918L442.39 18.2853ZM443.261 18.2485L444 35.7329L444.87 35.6961L444.132 18.2117L443.393 0.727348L442.522 0.764132L443.261 18.2485ZM444.132 18.2117L444.87 35.6961C455.656 35.2405 466.461 35.009 477.285 35.0017L477.273 17.5017L477.262 0.00172901C465.953 0.00929737 454.664 0.251145 443.393 0.727348L444.132 18.2117ZM477.273 17.5017L477.285 35.0017L478.159 35.0011L478.147 17.5011L478.135 0.00114441L477.262 0.00172901L477.273 17.5017ZM478.147 17.5011L478.159 35.0011L479.032 35.0006L479.021 17.5006L479.009 0.000559807L478.135 0.00114441L478.147 17.5011ZM479.021 17.5006L479.032 35.0006C489.719 34.9934 500.406 35.3336 511.093 36.0212L512.217 18.5573L513.34 1.09345C501.899 0.35725 490.455 -0.00710011 479.009 0.000559807L479.021 17.5006ZM512.217 18.5573L511.093 36.0212L511.966 36.0774L513.09 18.6135L514.214 1.14966L513.34 1.09345L512.217 18.5573ZM513.09 18.6135L511.966 36.0774L512.84 36.1336L513.964 18.6697L515.087 1.20586L514.214 1.14966L513.09 18.6135ZM513.964 18.6697L512.84 36.1336C522.438 36.7512 531.826 38.5525 541.037 41.5493L546.451 24.908L551.866 8.26661C539.888 4.36961 527.618 2.01212 515.087 1.20586L513.964 18.6697ZM546.451 24.908L541.037 41.5493L541.873 41.8214L547.288 25.1801L552.702 8.53873L551.866 8.26661L546.451 24.908ZM547.288 25.1801L541.873 41.8214L542.71 42.0936L548.124 25.4522L553.539 8.81085L552.702 8.53873L547.288 25.1801ZM548.124 25.4522L542.71 42.0936C553.574 45.6284 564.453 48.875 575.345 51.8327L579.931 34.9442L584.517 18.0558C574.188 15.2512 563.862 12.1697 553.539 8.81085L548.124 25.4522ZM579.931 34.9442L575.345 51.8327L576.183 52.0601L580.769 35.1717L585.355 18.2832L584.517 18.0558L579.931 34.9442ZM580.769 35.1717L576.183 52.0601L577.02 52.2876L581.606 35.3991L586.192 18.5107L585.355 18.2832L580.769 35.1717ZM581.606 35.3991L577.02 52.2876C587.202 55.0522 597.268 58.2016 607.219 61.7359L613.076 45.2452L618.933 28.7544C608.145 24.923 597.232 21.5083 586.192 18.5107L581.606 35.3991ZM613.076 45.2452L607.219 61.7359L608.038 62.0267L613.895 45.5359L619.752 29.0452L618.933 28.7544L613.076 45.2452ZM613.895 45.5359L608.038 62.0267L608.856 62.3174L614.713 45.8267L620.57 29.3359L619.752 29.0452L613.895 45.5359ZM614.713 45.8267L608.856 62.3174C619.729 66.1793 630.867 69.5745 642.267 72.5055L646.625 55.5568L650.983 38.6081C640.572 35.9314 630.436 32.8398 620.57 29.3359L614.713 45.8267ZM646.625 55.5568L642.267 72.5055L643.128 72.7269L647.486 55.7782L651.844 38.8294L650.983 38.6081L646.625 55.5568ZM647.486 55.7782L643.128 72.7269L643.989 72.9483L648.347 55.9995L652.704 39.0508L651.844 38.8294L647.486 55.7782ZM648.347 55.9995L643.989 72.9483C652.602 75.1628 660.338 78.9428 667.333 84.3432L678.027 70.4908L688.721 56.6384C677.953 48.3249 665.902 42.444 652.704 39.0508L648.347 55.9995ZM678.027 70.4908L667.333 84.3432L668.035 84.8845L678.729 71.0321L689.423 57.1797L688.721 56.6384L678.027 70.4908ZM678.729 71.0321L668.035 84.8845L668.736 85.4259L679.43 71.5735L690.124 57.7211L689.423 57.1797L678.729 71.0321ZM679.43 71.5735L668.736 85.4259C678.365 92.8592 688.498 99.4454 699.131 105.176L707.433 89.7704L715.736 74.3652C706.795 69.5467 698.259 64.0016 690.124 57.7211L679.43 71.5735ZM707.433 89.7704L699.131 105.176L699.903 105.592L708.206 90.1868L716.508 74.7816L715.736 74.3652L707.433 89.7704ZM708.206 90.1868L699.903 105.592L700.676 106.008L708.978 90.6032L717.281 75.198L716.508 74.7816L708.206 90.1868ZM708.978 90.6032L700.676 106.008C709.685 110.864 718.275 116.369 726.451 122.527L736.98 108.549L747.509 94.5714C737.923 87.3504 727.845 80.8913 717.281 75.198L708.978 90.6032ZM736.98 108.549L726.451 122.527L727.152 123.056L737.681 109.078L748.21 95.0995L747.509 94.5714L736.98 108.549ZM737.681 109.078L727.152 123.056L727.853 123.584L738.382 109.606L748.911 95.6276L748.21 95.0995L737.681 109.078ZM738.382 109.606L727.853 123.584C735.865 129.619 743.248 136.344 750.014 143.769L762.949 131.982L775.885 120.195C767.656 111.165 758.662 102.972 748.911 95.6276L738.382 109.606ZM762.949 131.982L750.014 143.769L750.606 144.418L763.541 132.631L776.477 120.845L775.885 120.195L762.949 131.982ZM763.541 132.631L750.606 144.418L751.198 145.068L764.133 133.281L777.068 121.494L776.477 120.845L763.541 132.631ZM764.133 133.281L751.198 145.068C759.053 153.688 767.28 161.929 775.878 169.789L787.685 156.872L799.493 143.956C791.682 136.816 784.207 129.329 777.068 121.494L764.133 133.281ZM787.685 156.872L775.878 169.789L776.525 170.381L788.333 157.464L800.14 144.548L799.493 143.956L787.685 156.872ZM788.333 157.464L776.525 170.381L777.173 170.973L788.981 158.057L800.788 145.14L800.14 144.548L788.333 157.464ZM788.981 158.057L777.173 170.973C784.536 177.703 791.165 185.075 797.074 193.099L811.166 182.722L825.258 172.346C817.994 162.482 809.834 153.41 800.788 145.14L788.981 158.057ZM811.166 182.722L797.074 193.099L797.594 193.805L811.686 183.429L825.778 173.052L825.258 172.346L811.166 182.722ZM811.686 183.429L797.594 193.805L798.114 194.511L812.206 184.135L826.297 173.758L825.778 173.052L811.686 183.429ZM812.206 184.135L798.114 194.511C804.709 203.469 811.319 212.418 817.943 221.36L832.005 210.943L846.067 200.526C839.463 191.611 832.873 182.689 826.297 173.758L812.206 184.135ZM832.005 210.943L817.943 221.36L818.465 222.065L832.527 211.648L846.589 201.231L846.067 200.526L832.005 210.943ZM832.527 211.648L818.465 222.065L818.987 222.769L833.049 212.352L847.111 201.935L846.589 201.231L832.527 211.648ZM833.049 212.352L818.987 222.769C824.873 230.715 829.868 239.182 833.981 248.19L849.9 240.922L865.819 233.653C860.692 222.425 854.453 211.846 847.111 201.935L833.049 212.352ZM849.9 240.922L833.981 248.19L834.345 248.989L850.265 241.721L866.184 234.452L865.819 233.653L849.9 240.922ZM850.265 241.721L834.345 248.989L834.71 249.788L850.629 242.519L866.548 235.251L866.184 234.452L850.265 241.721ZM850.629 242.519L834.71 249.788C839.291 259.821 843.773 269.85 848.155 279.876L864.19 272.867L880.225 265.857C875.766 255.657 871.207 245.454 866.548 235.251L850.629 242.519ZM864.19 272.867L848.155 279.876L848.504 280.674L864.539 273.665L880.574 266.656L880.225 265.857L864.19 272.867ZM864.539 273.665L848.504 280.674L848.853 281.473L864.888 274.463L880.923 267.454L880.574 266.656L864.539 273.665ZM864.888 274.463L848.853 281.473C853.31 291.668 857.85 301.844 862.476 312.002L878.402 304.749L894.329 297.497C889.777 287.5 885.308 277.486 880.923 267.454L864.888 274.463ZM878.402 304.749L862.476 312.002L862.838 312.797L878.765 305.545L894.691 298.293L894.329 297.497L878.402 304.749ZM878.765 305.545L862.838 312.797L863.201 313.593L879.127 306.341L895.054 299.088L894.691 298.293L878.765 305.545ZM879.127 306.341L863.201 313.593C867.529 323.099 871.342 332.826 874.64 342.777L891.252 337.271L907.863 331.766C904.173 320.63 899.903 309.737 895.054 299.088L879.127 306.341ZM891.252 337.271L874.64 342.777L874.916 343.609L891.527 338.104L908.139 332.598L907.863 331.766L891.252 337.271ZM891.527 338.104L874.916 343.609L875.192 344.441L891.803 338.936L908.415 333.431L908.139 332.598L891.527 338.104ZM891.803 338.936L875.192 344.441C878.212 353.554 880.027 362.916 880.639 372.565L898.104 371.458L915.569 370.351C914.768 357.724 912.383 345.404 908.415 333.431L891.803 338.936ZM898.104 371.458L880.639 372.565L880.694 373.445L898.159 372.338L915.624 371.231L915.569 370.351L898.104 371.458ZM898.159 372.338L880.694 373.445L880.75 374.324L898.215 373.217L915.68 372.11L915.624 371.231L898.159 372.338ZM898.215 373.217L880.75 374.324C881.551 386.96 883.951 399.355 887.931 411.477L904.558 406.018L921.185 400.559C918.119 391.223 916.291 381.751 915.68 372.11L898.215 373.217ZM904.558 406.018L887.931 411.477L888.209 412.324L904.836 406.865L921.463 401.406L921.185 400.559L904.558 406.018ZM904.836 406.865L888.209 412.324L888.487 413.171L905.114 407.712L921.741 402.253L921.463 401.406L904.836 406.865ZM905.114 407.712L888.487 413.171C891.16 421.313 891.859 429.515 890.6 437.995L907.911 440.563L925.221 443.132C927.279 429.268 926.112 415.569 921.741 402.253L905.114 407.712ZM907.911 440.563L890.6 437.995L890.47 438.877L907.78 441.445L925.091 444.014L925.221 443.132L907.911 440.563ZM907.78 441.445L890.47 438.877L890.339 439.759L907.649 442.327L924.96 444.896L925.091 444.014L907.78 441.445ZM907.649 442.327L890.339 439.759C889.486 445.505 888.896 450.454 888.701 454.294C888.608 456.132 888.565 458.39 888.813 460.617C888.934 461.704 889.193 463.457 889.87 465.416C890.413 466.989 892.051 471.196 896.473 474.4L906.74 460.229L917.008 446.057C919.204 447.649 920.584 449.445 921.401 450.753C922.221 452.065 922.688 453.226 922.949 453.982C923.448 455.425 923.571 456.5 923.598 456.745C923.659 457.29 923.598 457.215 923.656 456.069C923.764 453.942 924.155 450.322 924.96 444.896L907.649 442.327ZM906.74 460.229L896.473 474.4L896.556 474.46L906.823 460.289L917.091 446.118L917.008 446.057L906.74 460.229ZM906.823 460.289L896.556 474.46L896.639 474.52L906.907 460.349L917.174 446.178L917.091 446.118L906.823 460.289ZM906.907 460.349L896.639 474.52C894.648 473.078 893.379 471.5 892.635 470.409C891.877 469.297 891.412 468.318 891.144 467.683C890.631 466.468 890.447 465.569 890.409 465.382C890.324 464.969 890.392 465.13 890.452 466.277C890.565 468.432 890.559 472.053 890.35 477.434L907.836 478.116L925.323 478.797C925.545 473.096 925.601 468.214 925.404 464.448C925.309 462.633 925.129 460.479 924.704 458.394C924.496 457.372 924.118 455.798 923.388 454.07C922.819 452.721 921.141 449.052 917.174 446.178L906.907 460.349ZM907.836 478.116L890.35 477.434L890.316 478.309L907.802 478.99L925.289 479.672L925.323 478.797L907.836 478.116Z" fill="black"/>
</svg>
